<svg width="1440" height="579" viewBox="0 0 1440 579" fill="none" xmlns="http://www.w3.org/2000/svg">
<path d="M0 578.433C119.983 578.433 119.983 536.253 239.966 536.253C359.948 536.253 359.948 578.433 479.931 578.433C599.914 578.433 599.914 536.253 719.897 536.253C839.88 536.253 839.88 578.433 959.863 578.433C1079.85 578.433 1079.85 536.253 1199.83 536.253C1319.81 536.253 1319.81 578.433 1439.79 578.433L1440 444.255H0V578.433Z" fill="url(#paint0_radial_6_11)"/>
<path d="M64.1956 444.028C64.1956 444.028 70.1257 392.783 136.759 389.535C203.391 386.288 192.018 285.733 252.943 285.82C314.438 285.906 310.038 410.174 377.813 378.874C446.132 347.322 457.283 338.534 493.697 390.307C521.029 429.166 587.419 386.73 607.514 444.028H64.1956Z" fill="url(#paint1_linear_6_11)"/>
<path d="M1375.8 444.255C1375.8 444.255 1369.87 393.01 1303.23 389.762C1236.6 386.515 1247.97 285.96 1187.05 286.047C1125.55 286.133 1129.95 410.401 1062.18 379.101C993.859 347.549 982.709 338.761 946.295 390.534C918.962 429.393 852.573 386.957 832.478 444.255H1375.8H1375.8Z" fill="url(#paint2_linear_6_11)"/>
<path d="M1274.29 444.255C1274.29 444.255 1269.25 410.949 1212.69 408.837C1156.12 406.724 1165.77 341.368 1114.05 341.426C1061.84 341.484 1065.59 422.251 1008.05 401.909C950.048 381.403 940.58 375.693 909.667 409.34C886.467 434.596 830.102 407.013 813.042 444.255H1274.28H1274.29Z" fill="url(#paint3_linear_6_11)"/>
<path d="M165.704 444.028C165.704 444.028 170.739 410.722 227.306 408.61C283.872 406.502 274.218 341.141 325.939 341.199C378.147 341.257 374.407 422.024 431.946 401.682C489.944 381.176 499.412 375.466 530.325 409.113C553.525 434.369 609.89 406.786 626.95 444.028H165.704Z" fill="url(#paint4_linear_6_11)"/>
<path d="M440.301 380.067C473.977 380.067 501.278 407.383 501.278 441.076H379.328C379.328 407.383 406.63 380.067 440.305 380.067H440.301Z" fill="#B8CC71"/>
<path d="M516.299 359.495C561.33 359.495 597.837 396.021 597.837 441.076H434.761C434.761 396.021 471.267 359.495 516.299 359.495Z" fill="url(#paint5_linear_6_11)"/>
<path d="M587.571 420.199C578.718 424.642 569.828 429.328 561.137 434.099C565.103 433.557 569.079 432.991 573.066 432.408C574.19 432.246 574.993 432.974 574.84 434.042C574.688 435.106 573.652 436.116 572.547 436.292C567.745 437.054 562.956 437.779 558.184 438.467C559.914 439.355 561.611 440.226 563.274 441.077H553.635C552.653 440.561 551.668 440.046 550.665 439.521C546.611 440.07 542.57 440.589 538.544 441.077H500.635C492.953 439.64 485.153 438.105 477.252 436.512C466.448 438.379 455.915 439.911 445.734 440.948C445.615 440.961 445.497 440.958 445.375 440.948C444.454 440.866 443.414 440.168 442.933 439.264C442.388 438.237 442.787 437.319 443.81 437.203C451.011 436.404 458.363 435.384 465.842 434.194C462.191 433.445 458.523 432.693 454.838 431.937C453.696 431.7 452.751 430.663 452.755 429.62C452.755 428.576 453.707 427.902 454.855 428.129C466.746 430.443 478.508 432.761 490.068 434.936C482.227 432.246 474.227 429.521 466.15 426.841C459.793 426.56 453.429 426.241 447.058 425.885C445.913 425.821 444.857 424.916 444.721 423.869C444.586 422.839 445.399 422.039 446.523 422.059C446.543 422.059 446.56 422.059 446.581 422.059C448.467 422.144 450.354 422.226 452.237 422.303C448.809 421.209 445.375 420.131 441.941 419.074C440.806 418.725 440.092 417.651 440.366 416.668C440.64 415.685 441.792 415.153 442.916 415.492C450.851 417.871 458.814 420.385 466.729 422.954C466.739 422.954 466.746 422.961 466.756 422.961C478.718 426.844 490.572 430.853 502.044 434.726C493.299 428.823 484.161 422.88 475.088 417.122C467.467 415.194 459.823 413.303 452.206 411.504C451.072 411.236 450.364 410.179 450.638 409.139C450.916 408.098 452.067 407.458 453.188 407.715C456.867 408.559 460.558 409.427 464.253 410.314C459.447 407.319 454.709 404.401 450.117 401.599C449.178 401.026 448.989 399.833 449.693 398.922C450.398 398.01 451.712 397.719 452.63 398.285C468.446 408.068 486.18 419.24 502.768 430.324C499.182 426.055 495.52 421.788 491.876 417.549C481.675 410.365 471.43 403.307 461.926 396.723C461.032 396.106 460.917 394.869 461.662 393.951C462.407 393.032 463.721 392.778 464.595 393.398C469.875 397.112 475.413 400.975 481.062 404.927C475.833 398.749 470.851 392.69 466.428 386.831C465.804 386.008 466.089 384.734 467.044 383.981C467.999 383.226 469.256 383.28 469.869 384.107C480.984 399.122 495.778 415.391 509.092 431.568C505.651 423.598 502.054 415.631 498.613 407.705C489.292 399.044 480.154 390.511 472.256 382.46C471.535 381.728 471.67 380.444 472.537 379.586C473.408 378.729 474.671 378.624 475.379 379.359C481.198 385.401 487.731 391.704 494.538 398.126C492.984 394.378 491.494 390.643 490.098 386.923C489.705 385.876 490.257 384.646 491.317 384.168C492.377 383.693 493.546 384.158 493.942 385.208C495.663 389.766 497.519 394.344 499.446 398.935C500.279 393.873 501.16 388.8 502.05 383.724C502.254 382.578 503.307 381.782 504.414 381.945C505.518 382.107 506.264 383.175 506.074 384.32C504.872 391.619 503.662 398.912 502.541 406.194C506.077 414.381 509.742 422.598 513.203 430.806C512.963 418.688 512.743 406.567 512.536 394.449C509.857 387.146 507.263 379.851 504.953 372.579C504.611 371.498 505.17 370.285 506.186 369.871C507.202 369.458 508.306 370.007 508.665 371.094C509.83 374.639 511.059 378.187 512.326 381.738C512.235 376.049 512.15 370.359 512.065 364.67C512.052 363.511 512.878 362.555 513.914 362.538C514.951 362.521 515.825 363.453 515.865 364.609C516.566 385.289 517.027 405.97 517.244 426.658C518.937 420.47 520.681 414.279 522.371 408.102C522.459 395.909 522.334 383.72 521.934 371.545C521.897 370.407 522.71 369.498 523.763 369.498C523.78 369.498 523.794 369.498 523.811 369.498C524.884 369.525 525.806 370.488 525.867 371.64C526.202 378.539 526.419 385.445 526.524 392.351C528.478 384.527 530.212 376.74 531.529 369.01C531.719 367.912 532.715 367.296 533.775 367.635C534.835 367.973 535.566 369.136 535.394 370.23C532.43 388.881 526.801 407.932 521.406 427.034C527.574 417.834 534.012 408.637 539.963 399.634C541.51 392.646 542.814 385.703 543.742 378.817C543.891 377.723 544.897 377.082 546.005 377.39C547.112 377.695 547.915 378.824 547.776 379.912C547.353 383.222 546.834 386.547 546.238 389.884C548.951 385.53 551.478 381.237 553.733 377.035C554.214 376.137 555.41 375.96 556.429 376.628C557.449 377.296 557.896 378.553 557.408 379.444C553.5 386.601 548.785 394.029 543.722 401.609C543.722 401.612 543.715 401.616 543.715 401.619C537.101 411.521 529.887 421.683 523.079 431.842C528.529 427.081 534.154 422.303 539.78 417.583C546.987 407.57 554.028 397.736 559.891 388.349C560.446 387.458 561.703 387.279 562.715 387.936C563.725 388.593 564.097 389.84 563.532 390.725C560.148 396.028 556.382 401.484 552.423 407.044C558.644 401.877 564.707 396.855 570.363 392.08C571.166 391.402 572.49 391.545 573.323 392.385C574.16 393.226 574.173 394.449 573.35 395.13C563.786 403.049 553.171 411.667 542.618 420.491C542.615 420.491 542.611 420.497 542.608 420.501C537.365 424.886 532.136 429.318 527.059 433.744C538.388 428.535 550.157 423.198 561.967 418.078C567.091 413.934 572.165 409.881 577.069 405.98C577.949 405.279 579.277 405.374 580.036 406.177C580.794 406.98 580.676 408.193 579.778 408.898C578.308 410.05 576.828 411.216 575.335 412.392C578.613 411.026 581.881 409.688 585.136 408.38C586.21 407.949 587.443 408.376 587.876 409.322C588.31 410.267 587.764 411.385 586.677 411.829C566.62 419.975 546.127 429.318 527.127 438.2C535.058 437.39 543.034 436.461 551.051 435.438C562.472 429.081 574.315 422.791 586.03 416.949C587.094 416.417 588.327 416.719 588.76 417.614C589.194 418.505 588.655 419.66 587.575 420.203L587.571 420.199Z" fill="#6AA053"/>
<path d="M998.71 380.068C965.035 380.068 937.733 407.383 937.733 441.076H1059.68C1059.68 407.383 1032.38 380.068 998.706 380.068H998.71Z" fill="#B8CC71"/>
<path d="M922.713 359.495C877.681 359.495 841.174 396.021 841.174 441.076H1004.25C1004.25 396.021 967.744 359.495 922.713 359.495Z" fill="url(#paint6_linear_6_11)"/>
<path d="M851.44 420.199C860.293 424.642 869.184 429.328 877.874 434.099C873.908 433.557 869.932 432.991 865.946 432.408C864.821 432.246 864.019 432.974 864.171 434.042C864.324 435.106 865.36 436.116 866.464 436.292C871.267 437.054 876.056 437.779 880.828 438.467C879.097 439.355 877.4 440.226 875.737 441.077H885.376C886.358 440.561 887.344 440.046 888.346 439.521C892.4 440.07 896.441 440.589 900.468 441.077H938.377C946.058 439.64 953.858 438.105 961.759 436.512C972.563 438.379 983.097 439.911 993.277 440.948C993.396 440.961 993.514 440.958 993.636 440.948C994.558 440.866 995.597 440.168 996.078 439.264C996.624 438.237 996.224 437.319 995.201 437.203C988.001 436.404 980.648 435.384 973.17 434.194C976.821 433.445 980.489 432.693 984.174 431.937C985.315 431.7 986.26 430.663 986.256 429.62C986.256 428.576 985.305 427.902 984.157 428.129C972.265 430.443 960.503 432.761 948.944 434.936C956.784 432.246 964.784 429.521 972.862 426.841C979.219 426.56 985.582 426.241 991.953 425.885C993.098 425.821 994.155 424.916 994.29 423.869C994.426 422.839 993.613 422.039 992.488 422.059C992.468 422.059 992.451 422.059 992.431 422.059C990.544 422.144 988.658 422.226 986.775 422.304C990.202 421.209 993.636 420.131 997.071 419.074C998.205 418.725 998.92 417.651 998.645 416.668C998.371 415.685 997.22 415.153 996.095 415.492C988.16 417.871 980.197 420.386 972.282 422.954C972.272 422.954 972.265 422.961 972.255 422.961C960.293 426.844 948.439 430.853 936.968 434.726C945.713 428.823 954.85 422.88 963.924 417.122C971.544 415.194 979.188 413.303 986.805 411.504C987.94 411.236 988.648 410.179 988.373 409.139C988.096 408.098 986.944 407.458 985.823 407.715C982.145 408.559 978.453 409.427 974.758 410.315C979.564 407.319 984.302 404.401 988.895 401.599C989.833 401.026 990.023 399.833 989.318 398.922C988.614 398.01 987.3 397.719 986.382 398.285C970.565 408.068 952.832 419.24 936.243 430.324C939.83 426.055 943.491 421.788 947.135 417.549C957.336 410.365 967.581 403.307 977.085 396.723C977.979 396.106 978.094 394.869 977.349 393.951C976.604 393.032 975.29 392.778 974.416 393.398C969.136 397.112 963.599 400.975 957.949 404.927C963.179 398.749 968.161 392.69 972.584 386.831C973.207 386.008 972.923 384.734 971.967 383.981C971.012 383.226 969.756 383.28 969.143 384.107C958.027 399.122 943.233 415.391 929.92 431.568C933.361 423.598 936.958 415.631 940.399 407.705C949.719 399.044 958.857 390.511 966.755 382.46C967.476 381.728 967.341 380.444 966.474 379.586C965.603 378.729 964.34 378.624 963.632 379.359C957.814 385.401 951.281 391.704 944.473 398.126C946.028 394.378 947.518 390.643 948.913 386.923C949.306 385.876 948.754 384.646 947.694 384.168C946.634 383.693 945.465 384.158 945.069 385.208C943.349 389.766 941.493 394.344 939.565 398.935C938.732 393.873 937.852 388.8 936.961 383.724C936.758 382.578 935.705 381.782 934.597 381.945C933.493 382.107 932.748 383.175 932.937 384.32C934.14 391.619 935.349 398.912 936.47 406.194C932.934 414.381 929.27 422.598 925.808 430.806C926.049 418.688 926.269 406.567 926.475 394.449C929.154 387.146 931.749 379.851 934.058 372.579C934.401 371.498 933.842 370.285 932.826 369.871C931.81 369.458 930.706 370.007 930.347 371.094C929.181 374.639 927.952 378.187 926.685 381.738C926.777 376.049 926.861 370.359 926.946 364.67C926.96 363.511 926.133 362.555 925.097 362.538C924.061 362.521 923.187 363.453 923.146 364.609C922.445 385.289 921.984 405.97 921.768 426.658C920.074 420.47 918.33 414.279 916.64 408.102C916.552 395.909 916.677 383.72 917.077 371.545C917.114 370.407 916.301 369.498 915.248 369.498C915.231 369.498 915.218 369.498 915.201 369.498C914.127 369.525 913.206 370.488 913.145 371.64C912.809 378.539 912.593 385.445 912.488 392.351C910.534 384.527 908.799 376.74 907.482 369.01C907.292 367.912 906.297 367.296 905.237 367.635C904.176 367.973 903.445 369.136 903.618 370.23C906.581 388.881 912.21 407.932 917.605 427.034C911.438 417.834 904.999 408.637 899.049 399.634C897.501 392.646 896.197 385.703 895.269 378.817C895.12 377.723 894.114 377.082 893.007 377.391C891.899 377.695 891.096 378.824 891.235 379.912C891.659 383.222 892.177 386.547 892.773 389.884C890.06 385.53 887.533 381.237 885.278 377.035C884.797 376.137 883.601 375.96 882.582 376.628C881.562 377.296 881.115 378.553 881.603 379.444C885.512 386.601 890.226 394.029 895.289 401.609C895.289 401.612 895.296 401.616 895.296 401.619C901.911 411.521 909.125 421.683 915.932 431.842C910.483 427.081 904.857 422.303 899.232 417.583C892.024 407.57 884.983 397.736 879.121 388.349C878.565 387.458 877.309 387.279 876.296 387.936C875.287 388.593 874.914 389.84 875.48 390.725C878.863 396.028 882.629 401.484 886.589 407.044C880.367 401.877 874.305 396.855 868.649 392.08C867.846 391.403 866.522 391.545 865.688 392.385C864.852 393.226 864.838 394.449 865.661 395.13C875.226 403.049 885.84 411.667 896.393 420.491C896.397 420.491 896.4 420.497 896.404 420.501C901.646 424.886 906.876 429.318 911.953 433.744C900.624 428.535 888.854 423.198 877.045 418.078C871.92 413.934 866.847 409.881 861.943 405.98C861.062 405.279 859.734 405.374 858.976 406.177C858.217 406.98 858.336 408.193 859.233 408.898C860.703 410.05 862.183 411.216 863.677 412.392C860.398 411.026 857.13 409.688 853.875 408.38C852.801 407.949 851.569 408.376 851.135 409.322C850.702 410.267 851.247 411.385 852.334 411.829C872.391 419.975 892.885 429.318 911.885 438.2C903.953 437.39 895.977 436.461 887.96 435.438C876.54 429.081 864.696 422.791 852.981 416.949C851.918 416.417 850.685 416.719 850.251 417.614C849.818 418.505 850.356 419.66 851.437 420.203L851.44 420.199Z" fill="#6AA053"/>
<path d="M888 346V319.98C888 308.226 879.53 298.037 867.597 295.436L861 294" stroke="#29A8DF" stroke-width="30" stroke-linecap="round" stroke-linejoin="round"/>
<path d="M526 344V319.15C526 307.319 534.47 297.063 546.403 294.445L553 293" stroke="#29A8DF" stroke-width="30" stroke-linecap="round" stroke-linejoin="round"/>
<path d="M878.589 425.875H761.011V441.263H878.589V425.875Z" fill="#90ADC6"/>
<path d="M881.976 425.875H764.398V441.263H881.976V425.875Z" stroke="#333652" stroke-width="8" stroke-linecap="round" stroke-linejoin="round"/>
<path d="M869.404 289.909H765.303V425.872H869.404V289.909Z" fill="#C5DDEF"/>
<path d="M873.81 263.61H753.692V293.118H873.81V263.61Z" fill="#90ADC6"/>
<path d="M873.81 263.61H753.692V425.875H873.81V263.61Z" stroke="#333652" stroke-width="8" stroke-linecap="round" stroke-linejoin="round"/>
<path d="M651.169 167.292L536.542 271.35V425.875H765.797V271.35L651.169 167.292Z" fill="url(#paint7_linear_6_11)"/>
<path d="M651.169 189.064L765.797 293.119V271.35L651.169 167.292L536.542 271.35V293.119L651.169 189.064Z" fill="#90ADC6"/>
<path d="M762.214 148.949H651.169L779.602 283.881H779.873L762.214 148.949Z" fill="#C5DDEF"/>
<path d="M886.436 148.949H762.214L779.873 283.881H886.436V148.949Z" fill="url(#paint8_linear_6_11)"/>
<path d="M779.602 283.881L651.169 167.292L522.737 283.881L513.613 273.82L651.169 148.949L788.726 273.82L779.602 283.881Z" fill="#90ADC6"/>
<path d="M764.398 425.875H769.184V271.35" stroke="#333652" stroke-width="8" stroke-linecap="round" stroke-linejoin="round"/>
<path d="M539.929 271.35V425.875" stroke="#333652" stroke-width="8" stroke-linecap="round" stroke-linejoin="round"/>
<path d="M870.758 148.949H889.823V283.881H782.989" stroke="#333652" stroke-width="8" stroke-linecap="round" stroke-linejoin="round"/>
<path d="M824.013 148.949H843.044" stroke="#333652" stroke-width="8" stroke-linecap="round" stroke-linejoin="round"/>
<path d="M778.931 148.949H807.757" stroke="#333652" stroke-width="8" stroke-linecap="round" stroke-linejoin="round"/>
<path d="M654.556 148.949H762.214" stroke="#333652" stroke-width="8" stroke-linecap="round" stroke-linejoin="round"/>
<path d="M782.989 283.881L654.556 167.292L526.124 283.881L517 273.82L654.556 148.949L792.113 273.82L782.989 283.881Z" stroke="#333652" stroke-width="8" stroke-linecap="round" stroke-linejoin="round"/>
<path d="M849.408 303.701H839.135L789.281 353.582V363.856L849.408 303.701Z" fill="url(#paint9_linear_6_11)"/>
<path d="M789.281 303.701V353.582L839.136 303.701H789.281Z" fill="#7593AA"/>
<path d="M849.408 303.701L789.281 363.856V378.837L854.234 313.85V303.701H849.408Z" fill="#7593AA"/>
<path d="M789.281 378.837V399.389L854.234 334.402V313.85L789.281 378.837Z" fill="url(#paint10_linear_6_11)"/>
<path d="M789.281 399.389V425.875H854.234V334.402L789.281 399.389Z" fill="#7593AA"/>
<path d="M848.937 309.001V420.575H794.582V309.001H848.937ZM854.234 303.701H789.285V425.875H854.234V303.701Z" fill="white"/>
<path d="M789.281 425.875H854.231V303.701H789.281V425.875Z" stroke="#333652" stroke-width="8" stroke-linecap="round" stroke-linejoin="round"/>
<path d="M764.395 425.875H544.714V441.263H764.395V425.875Z" fill="#90ADC6"/>
<path d="M739.244 199.772L720.955 182.73V132.24H739.244V199.772Z" fill="#90ADC6"/>
<path d="M739.244 199.772L720.955 182.73V132.24H739.244V199.772Z" stroke="#333652" stroke-width="8" stroke-linecap="round" stroke-linejoin="round"/>
<path d="M539.929 425.875H764.398V441.263H544.714V425.875" stroke="#333652" stroke-width="8" stroke-linecap="round" stroke-linejoin="round"/>
<path d="M564.983 460L524 496H565V460H564.983Z" fill="#C5DDEF"/>
<path d="M854.973 460H565V496H855V460.02L854.973 460Z" fill="#90ADC6"/>
<path d="M855 460V496H896L855 460Z" fill="#7593AA"/>
<path d="M990.754 292.969C1011.49 278.981 1124.66 231.72 1186.94 404.432L1095 404.557C1057.03 258.151 1004.57 296.775 995.086 299.316" fill="url(#paint11_linear_6_11)"/>
<path d="M986.71 314.199C1033.75 460.507 887.889 465.251 887.889 384.117" stroke="#333652" stroke-width="13" stroke-linecap="round" stroke-linejoin="round"/>
<path d="M984.465 319.221C984.417 318.11 984.052 317.002 983.35 316.036C981.447 313.413 977.779 312.834 975.161 314.738L968.655 319.767L958.904 310.719C956.53 308.516 952.822 308.655 950.617 311.031C948.415 313.406 948.554 317.117 950.928 319.323L964.211 331.654C966.264 333.562 969.38 333.748 971.646 332.101L982.053 324.236C983.706 323.033 984.549 321.129 984.465 319.228V319.221Z" fill="#FFD799"/>
<path d="M986.71 312.823C985.091 309.37 981.874 308.967 981.874 308.967L980.143 303.379C979.757 302.136 978.44 301.441 977.197 301.824C975.954 302.21 975.259 303.528 975.642 304.772L978.037 312.901L975.168 314.918L981.315 325.056L986.957 320.807" fill="#FFD799"/>
<path d="M986.71 312.823C985.091 309.37 981.874 308.967 981.874 308.967L980.143 303.379C979.757 302.136 978.44 301.441 977.197 301.824C975.954 302.21 975.259 303.528 975.642 304.772L978.037 312.901L975.168 314.918" stroke="#333652" stroke-width="8" stroke-linecap="round" stroke-linejoin="round"/>
<path d="M950.617 311.027C948.415 313.403 948.554 317.113 950.928 319.319L964.211 331.651C966.264 333.558 969.38 333.745 971.646 332.098L985.379 322.003" stroke="#333652" stroke-width="8" stroke-linecap="round" stroke-linejoin="round"/>
<path d="M975.168 314.921L968.652 319.767" stroke="#333652" stroke-width="8" stroke-linecap="round" stroke-linejoin="round"/>
<path d="M959.389 441.093L940.995 441.086L940.996 437.688C940.997 433.15 944.68 429.465 949.219 429.466L951.176 429.467C955.711 429.469 959.395 433.153 959.393 437.694L959.392 441.093L959.389 441.093Z" fill="#7593AA"/>
<path d="M912.718 348.567C913.876 348.567 915.045 348.238 916.081 347.553C918.892 345.693 919.664 341.905 917.805 339.092L908.579 325.131L918.432 315.402C920.83 313.033 920.857 309.167 918.486 306.768C916.118 304.369 912.254 304.342 909.853 306.714L896.431 319.97C894.355 322.02 894.019 325.25 895.628 327.683L907.624 345.832C908.799 347.608 910.74 348.57 912.718 348.57V348.567Z" fill="#FFD799"/>
<path d="M902.785 313.84L896.583 319.967C894.507 322.017 894.172 325.246 895.781 327.679L907.777 345.829C908.952 347.604 910.893 348.567 912.871 348.567C914.029 348.567 915.197 348.238 916.234 347.554C919.045 345.693 919.817 341.905 917.958 339.092L908.732 325.131L911.323 322.572" stroke="#333652" stroke-width="8" stroke-linecap="round" stroke-linejoin="round"/>
<path d="M936.958 352.155L957.265 352.162L959.521 419.321C959.758 425.082 955.155 424.987 949.391 424.984H949.374C943.938 424.984 939.471 425.587 939.247 420.152L936.958 352.152V352.155Z" fill="#90ADC6"/>
<path d="M917.311 352.149L937.618 352.155L935.301 420.152C935.075 425.584 930.607 424.977 925.171 424.974H925.154C919.393 424.974 914.787 425.065 915.028 419.304L917.307 352.145L917.311 352.149Z" fill="#7593AA"/>
<path d="M917.466 352.155L937.113 352.162H937.774L957.421 352.169L959.677 419.328C959.914 425.089 955.311 424.994 949.546 424.991C944.104 424.991 939.633 425.584 939.42 420.145L937.442 357.865L935.444 420.142C935.224 425.58 930.756 424.984 925.314 424.98C919.553 424.98 914.947 425.072 915.187 419.311L917.466 352.152V352.155Z" stroke="#333652" stroke-width="8" stroke-linecap="round" stroke-linejoin="round"/>
<path d="M933.005 429.528C932.538 429.528 932.087 429.725 931.779 430.074C930.269 431.778 928.064 432.852 925.612 432.852C923.58 432.852 921.72 432.114 920.288 430.894C919.272 430.03 917.998 429.521 916.66 429.521H916.626C915.827 429.521 915.038 429.694 914.313 430.033L910.727 431.7C907.093 433.391 904.766 437.037 904.766 441.046L934.658 441.056V431.182C934.661 430.267 933.923 429.528 933.009 429.525L933.005 429.528Z" fill="#7593AA"/>
<path d="M933.178 429.538C932.711 429.538 932.26 429.735 931.952 430.084C930.442 431.788 928.237 432.862 925.785 432.862C923.753 432.862 921.893 432.124 920.461 430.904C919.445 430.04 918.171 429.531 916.833 429.531H916.799C916 429.531 915.211 429.704 914.486 430.043L910.9 431.71C907.266 433.401 904.939 437.047 904.939 441.056L934.831 441.066V431.192C934.834 430.277 934.096 429.538 933.182 429.535L933.178 429.538Z" stroke="#333652" stroke-width="8" stroke-linecap="round" stroke-linejoin="round"/>
<path d="M959.385 441.117L940.991 441.11L940.992 437.711C940.994 433.174 944.677 429.488 949.215 429.49L951.173 429.491C955.708 429.492 959.391 433.177 959.39 437.718L959.389 441.117L959.385 441.117Z" stroke="#333652" stroke-width="8" stroke-linecap="round" stroke-linejoin="round"/>
<path d="M909.507 301.532C913.026 298.266 917.571 296.47 922.299 296.47L937.774 296.477H944.449C949.394 296.48 954.092 298.645 957.309 302.4L967.358 314.128L957.411 323.531L957.401 352.165L937.753 352.159L917.463 352.152L918.12 319.577L913.419 323.986L900.207 310.17L909.514 301.532H909.507Z" fill="white"/>
<path d="M909.514 301.539C913.033 298.273 917.578 296.477 922.306 296.477L937.781 296.483H944.456C949.401 296.487 954.098 298.652 957.316 302.407L967.365 314.135L957.417 323.538L957.407 352.172L937.76 352.165L917.47 352.159L918.127 319.584L913.426 323.992L900.214 310.177L909.521 301.539H909.514Z" stroke="#333652" stroke-width="8" stroke-linecap="round" stroke-linejoin="round"/>
<path d="M924.218 339.487L917.95 337.113C916.464 336.55 914.805 337.298 914.242 338.784L911.124 347.024C910.561 348.51 911.309 350.17 912.795 350.733L919.063 353.108C920.548 353.671 922.208 352.922 922.77 351.436L925.889 343.197C926.451 341.711 925.703 340.05 924.218 339.487Z" fill="#FFD799"/>
<path d="M924.218 339.487L917.95 337.113C916.464 336.55 914.805 337.298 914.242 338.784L911.124 347.024C910.561 348.51 911.309 350.17 912.795 350.733L919.063 353.108C920.548 353.671 922.208 352.922 922.77 351.436L925.889 343.197C926.451 341.711 925.703 340.05 924.218 339.487Z" stroke="#333652" stroke-width="8" stroke-linecap="round" stroke-linejoin="round"/>
<path d="M990.185 306.253L983.062 308.295C981.751 308.671 980.993 310.039 981.368 311.35L983.942 320.338C984.318 321.65 985.685 322.408 986.996 322.032L994.12 319.99C995.431 319.614 996.189 318.246 995.813 316.935L993.239 307.947C992.863 306.636 991.496 305.877 990.185 306.253Z" fill="#FFD799"/>
<path d="M990.185 306.253L983.062 308.295C981.751 308.671 980.993 310.039 981.368 311.35L983.942 320.338C984.318 321.65 985.685 322.408 986.996 322.032L994.12 319.99C995.431 319.614 996.189 318.246 995.813 316.935L993.239 307.947C992.863 306.636 991.496 305.877 990.185 306.253Z" stroke="#333652" stroke-width="8" stroke-linecap="round" stroke-linejoin="round"/>
<path d="M912.704 305.65C919.631 305.144 924.836 299.115 924.329 292.184C923.823 285.254 917.798 280.047 910.871 280.553C903.944 281.06 898.739 287.088 899.246 294.019C899.752 300.949 905.777 306.157 912.704 305.65Z" fill="#A37C52"/>
<path d="M908.901 281.506C915.258 278.703 922.679 281.587 925.48 287.947" stroke="#333652" stroke-width="8" stroke-linecap="round" stroke-linejoin="round"/>
<path d="M919.041 304.535C912.684 307.337 905.264 304.453 902.463 298.093C901.304 295.463 901.118 292.654 901.748 290.062" stroke="#333652" stroke-width="8" stroke-linecap="round" stroke-linejoin="round"/>
<path d="M921.422 262.973C927.989 258.243 937.625 260.401 942.949 267.795C943.789 268.961 946.972 270.926 947.501 272.183C948.226 273.915 946.16 274.969 946.305 276.745C946.393 277.795 946.376 278.835 946.265 279.855L940.195 280.282L945.492 283.281C944.585 285.843 942.976 288.107 940.693 289.75C934.126 294.481 924.491 292.322 919.166 284.928C913.846 277.534 914.852 267.704 921.419 262.973H921.422Z" fill="#FFD799"/>
<path d="M937.987 260.703C937.493 265.847 935.975 273.478 931.396 276.833C931.396 276.833 932.667 296.663 916.572 298.456L906.964 295.935C899.249 293.908 895.018 285.41 898.344 278.154C899.753 275.078 902.364 272.655 907.015 272.251C907.015 272.251 909.521 248.487 933.286 254.092C936.287 254.8 938.285 257.64 937.991 260.706L937.987 260.703Z" fill="#A37C52"/>
<path d="M909.734 295.904C902.019 293.878 897.789 285.379 901.115 278.124C902.524 275.047 905.135 272.624 909.785 272.221C909.785 272.221 912.291 248.456 936.057 254.061C939.057 254.769 941.056 257.609 940.761 260.676C940.267 265.82 938.749 273.451 934.17 276.806C934.17 276.806 935.44 296.636 919.346 298.428" stroke="#333652" stroke-width="8" stroke-linecap="round" stroke-linejoin="round"/>
<path d="M941.039 263.231C942.793 264.4 944.395 265.921 945.723 267.768C946.563 268.934 949.746 270.899 950.275 272.156C950.999 273.888 948.934 274.942 949.079 276.717C949.167 277.768 949.15 278.808 949.038 279.828L942.969 280.255L948.266 283.254C947.359 285.816 945.75 288.08 943.467 289.723C940.145 292.119 936.033 292.749 932.091 291.827" stroke="#333652" stroke-width="8" stroke-linecap="round" stroke-linejoin="round"/>
<path d="M996.64 285.524L991.584 288.506L999.186 301.409L1004.24 298.427L996.64 285.524Z" fill="#FFC357"/>
<path d="M999.174 301.329L991.57 288.425L979.063 301.116L983.798 317.239C984.258 318.811 985.887 319.733 987.472 319.319C989.166 318.879 990.134 317.103 989.592 315.439L987.005 307.513C986.551 306.127 987.347 304.643 988.749 304.25L999.177 301.326L999.174 301.329Z" fill="#FFC357"/>
<path d="M996.64 285.524L991.584 288.506L999.186 301.409L1004.24 298.427L996.64 285.524Z" stroke="#333652" stroke-width="8" stroke-linecap="round" stroke-linejoin="round"/>
<path d="M999.174 301.329L991.57 288.425L979.063 301.116L983.798 317.239C984.258 318.811 985.887 319.733 987.472 319.319C989.166 318.879 990.134 317.103 989.592 315.439L987.005 307.513C986.551 306.127 987.347 304.643 988.749 304.25L999.177 301.326L999.174 301.329Z" stroke="#333652" stroke-width="8" stroke-linecap="round" stroke-linejoin="round"/>
<path d="M990.185 306.253L983.062 308.295C981.751 308.671 980.993 310.039 981.368 311.35L983.942 320.338C984.318 321.65 985.685 322.408 986.996 322.032L994.12 319.99C995.431 319.614 996.189 318.246 995.813 316.935L993.239 307.947C992.863 306.636 991.496 305.877 990.185 306.253Z" fill="#FFD799"/>
<path d="M990.185 306.253L983.062 308.295C981.751 308.671 980.993 310.039 981.368 311.35L983.942 320.338C984.318 321.65 985.685 322.408 986.996 322.032L994.12 319.99C995.431 319.614 996.189 318.246 995.813 316.935L993.239 307.947C992.863 306.636 991.496 305.877 990.185 306.253Z" stroke="#333652" stroke-width="8" stroke-linecap="round" stroke-linejoin="round"/>
<path d="M890.7 371.833H885.281V363.361C885.281 360.84 883.229 358.787 880.709 358.787H873.908V353.365H880.709C886.219 353.365 890.7 357.848 890.7 363.361V371.833Z" fill="#C5DDEF"/>
<path d="M890.7 371.833H885.281V363.361C885.281 360.84 883.229 358.787 880.709 358.787H873.908V353.365H880.709C886.219 353.365 890.7 357.848 890.7 363.361V371.833Z" stroke="#333652" stroke-width="8" stroke-linecap="round" stroke-linejoin="round"/>
<path d="M878.928 351.047H873.905V361.105H878.928V351.047Z" fill="#C5DDEF"/>
<path d="M878.928 351.047H873.905V361.105H878.928V351.047Z" stroke="#333652" stroke-width="8" stroke-linecap="round" stroke-linejoin="round"/>
<path d="M890.527 371.701H885.251C884.128 371.701 883.219 372.611 883.219 373.734V382.087C883.219 383.21 884.128 384.12 885.251 384.12H890.527C891.65 384.12 892.56 383.21 892.56 382.087V373.734C892.56 372.611 891.65 371.701 890.527 371.701Z" fill="#B8CC71"/>
<path d="M890.527 371.701H885.251C884.128 371.701 883.219 372.611 883.219 373.734V382.087C883.219 383.21 884.128 384.12 885.251 384.12H890.527C891.65 384.12 892.56 383.21 892.56 382.087V373.734C892.56 372.611 891.65 371.701 890.527 371.701Z" stroke="#333652" stroke-width="8" stroke-linecap="round" stroke-linejoin="round"/>
<path d="M892.563 377.909H883.219" stroke="#333652" stroke-width="8" stroke-linecap="round" stroke-linejoin="round"/>
<path d="M1036.4 343.938L1025.91 372.623" stroke="#6AA053" stroke-width="8" stroke-linecap="round" stroke-linejoin="round"/>
<path d="M1030.56 340.509L1020.06 369.197" stroke="#6AA053" stroke-width="8" stroke-linecap="round" stroke-linejoin="round"/>
<path d="M1024.71 337.083L1014.22 365.767" stroke="#6AA053" stroke-width="8" stroke-linecap="round" stroke-linejoin="round"/>
<path d="M245.413 302.474L234.917 331.159" stroke="#6AA053" stroke-width="8" stroke-linecap="round" stroke-linejoin="round"/>
<path d="M239.57 299.049L229.071 327.733" stroke="#6AA053" stroke-width="8" stroke-linecap="round" stroke-linejoin="round"/>
<path d="M233.725 295.619L223.229 324.307" stroke="#6AA053" stroke-width="8" stroke-linecap="round" stroke-linejoin="round"/>
<path d="M1107.19 259.337L1076.69 260.55" stroke="#90ADC6" stroke-width="8" stroke-linecap="round" stroke-linejoin="round"/>
<path d="M1108.14 252.624L1077.63 253.837" stroke="#90ADC6" stroke-width="8" stroke-linecap="round" stroke-linejoin="round"/>
<path d="M1109.08 245.915L1078.57 247.125" stroke="#90ADC6" stroke-width="8" stroke-linecap="round" stroke-linejoin="round"/>
<path d="M212.089 386.608L181.581 387.821" stroke="#90ADC6" stroke-width="8" stroke-linecap="round" stroke-linejoin="round"/>
<path d="M213.031 379.898L182.522 381.108" stroke="#90ADC6" stroke-width="8" stroke-linecap="round" stroke-linejoin="round"/>
<path d="M213.973 373.185L183.464 374.398" stroke="#90ADC6" stroke-width="8" stroke-linecap="round" stroke-linejoin="round"/>
<path d="M672.239 105.51C680.296 107.679 686.589 113.978 688.757 122.036C690.924 113.975 697.22 107.679 705.274 105.51C697.217 103.341 690.924 97.0418 688.757 88.9836C686.589 97.0452 680.293 103.341 672.239 105.51Z" fill="white"/>
<path d="M709.958 95.3712C715.147 96.7673 719.197 100.824 720.596 106.015C721.992 100.824 726.046 96.7707 731.234 95.3712C726.046 93.9751 721.995 89.9189 720.596 84.7275C719.201 89.9189 715.147 93.9717 709.958 95.3712Z" fill="white"/>
<path d="M668.852 105.51C676.909 107.679 683.202 113.978 685.37 122.036C687.537 113.975 693.833 107.679 701.887 105.51C693.83 103.341 687.537 97.0418 685.37 88.9836C683.202 97.0452 676.906 103.341 668.852 105.51Z" stroke="#333652" stroke-width="8" stroke-linecap="round" stroke-linejoin="round"/>
<path d="M706.571 95.3712C711.76 96.7673 715.811 100.824 717.209 106.015C718.605 100.824 722.659 96.7707 727.847 95.3712C722.659 93.9751 718.608 89.9189 717.209 84.7275C715.814 89.9189 711.76 93.9717 706.571 95.3712Z" stroke="#333652" stroke-width="8" stroke-linecap="round" stroke-linejoin="round"/>
<path d="M1236.71 345.405H1229.17C1225.47 345.405 1222.46 348.411 1222.46 352.118L1215.83 356.686L1221.83 364.3L1226.63 358.831H1236.7C1240.41 358.831 1243.41 355.825 1243.41 352.118C1243.41 348.411 1240.41 345.405 1236.7 345.405H1236.71Z" fill="white"/>
<path d="M1236.71 345.405H1229.17C1225.47 345.405 1222.46 348.411 1222.46 352.118L1215.83 356.686L1221.83 364.3L1226.63 358.831H1236.7C1240.41 358.831 1243.41 355.825 1243.41 352.118C1243.41 348.411 1240.41 345.405 1236.7 345.405H1236.71Z" stroke="#333652" stroke-width="8" stroke-linecap="round" stroke-linejoin="round"/>
<path d="M1215.84 356.686L1209.59 330.658C1208.03 324.141 1202.21 319.546 1195.51 319.546H1107.4C1100.7 319.546 1094.88 324.141 1093.32 330.658L1087.08 356.686L1081.08 364.3L1077.44 378.288H1225.48L1221.84 364.3L1215.84 356.686H1215.84Z" fill="white"/>
<path d="M1171.15 319.55H1154.18L1119.72 354.029C1125.59 353.734 1131.46 353.518 1137.33 353.385L1171.15 319.55Z" fill="url(#paint12_linear_6_11)"/>
<path d="M1149.65 319.55H1107.4C1105.72 319.55 1104.1 319.838 1102.58 320.373C1100.71 322.39 1099.33 325.046 1098.7 328.106L1093.04 355.73L1092.88 355.964C1101.82 355.127 1110.77 354.487 1119.73 354.033L1154.19 319.553H1149.65V319.55Z" fill="url(#paint13_linear_6_11)"/>
<path d="M1171.15 319.55L1137.33 353.385C1143.62 353.243 1149.91 353.196 1156.2 353.243L1187.2 319.55H1171.15Z" fill="#90ADC6"/>
<path d="M1209.87 355.727L1204.21 328.103C1203.58 325.046 1202.19 322.386 1200.32 320.37C1198.81 319.834 1197.19 319.546 1195.51 319.546H1187.2L1156.2 353.24C1172.97 353.368 1189.73 354.165 1206.45 355.639L1210.02 355.954L1209.87 355.72V355.727Z" fill="url(#paint14_linear_6_11)"/>
<path d="M1077.44 407.976V416.526C1077.44 419.172 1079.58 421.317 1082.23 421.317H1220.68C1223.33 421.317 1225.47 419.172 1225.47 416.526V407.976H1077.44H1077.44Z" fill="#90ADC6"/>
<path d="M1102.61 421.361H1082V425.845H1102.61V421.361Z" fill="#7593AA"/>
<path d="M1082 425.845V438.233C1082 439.907 1083.35 441.263 1085.03 441.263H1099.58C1101.26 441.263 1102.61 439.907 1102.61 438.233V425.845H1082H1082Z" fill="#90ADC6"/>
<path d="M1220.91 421.361H1200.29V425.845H1220.91V421.361Z" fill="#7593AA"/>
<path d="M1200.29 425.845V438.233C1200.29 439.907 1201.65 441.263 1203.32 441.263H1217.88C1219.55 441.263 1220.91 439.907 1220.91 438.233V425.845H1200.29H1200.29Z" fill="#90ADC6"/>
<path d="M1082 421.317H1102.61V438.189C1102.61 439.863 1101.26 441.219 1099.59 441.219H1085.03C1083.36 441.219 1082 439.86 1082 438.189V421.317H1082Z" stroke="#333652" stroke-width="8" stroke-linecap="round" stroke-linejoin="round"/>
<path d="M1200.29 421.317H1220.91V438.189C1220.91 439.863 1219.55 441.219 1217.88 441.219H1203.33C1201.65 441.219 1200.3 439.86 1200.3 438.189V421.317H1200.29Z" stroke="#333652" stroke-width="8" stroke-linecap="round" stroke-linejoin="round"/>
<path d="M1066.2 345.405H1073.74C1077.44 345.405 1080.44 348.411 1080.44 352.118L1087.07 356.686L1081.07 364.3L1076.28 358.831H1066.2C1062.5 358.831 1059.49 355.825 1059.49 352.118C1059.49 348.411 1062.5 345.405 1066.2 345.405H1066.2Z" fill="white"/>
<path d="M1184.72 408.02H1077.44V416.57C1077.44 419.216 1079.58 421.361 1082.23 421.361H1112.9C1116.28 421.361 1119.51 419.969 1121.83 417.512C1124.15 415.055 1127.38 413.662 1130.76 413.662H1172.16C1175.54 413.662 1178.77 415.055 1181.09 417.512C1183.41 419.969 1186.64 421.361 1190.02 421.361H1220.69C1223.34 421.361 1225.48 419.216 1225.48 416.57V408.02H1184.73H1184.72Z" fill="#C5DDEF"/>
<path d="M1077.44 407.976V416.526C1077.44 419.172 1079.58 421.317 1082.23 421.317H1112.9C1116.28 421.317 1119.51 419.925 1121.83 417.468C1124.15 415.011 1127.38 413.618 1130.76 413.618H1172.16C1175.54 413.618 1178.77 415.011 1181.09 417.468C1183.41 419.925 1186.64 421.317 1190.02 421.317H1220.69C1223.34 421.317 1225.48 419.172 1225.48 416.526V407.976" stroke="#333652" stroke-width="8" stroke-linecap="round" stroke-linejoin="round"/>
<path d="M1191.42 421.317H1107.88" stroke="#333652" stroke-width="8" stroke-linecap="round" stroke-linejoin="round"/>
<path d="M1225.47 378.288H1077.44V408.02H1225.47V378.288Z" fill="white"/>
<path d="M1077.44 378.288V407.976" stroke="#333652" stroke-width="8" stroke-linecap="round" stroke-linejoin="round"/>
<path d="M1225.47 407.976V378.288" stroke="#333652" stroke-width="8" stroke-linecap="round" stroke-linejoin="round"/>
<path d="M1181.02 407.976L1189.98 371.423H1112.92L1121.89 407.976" stroke="#333652" stroke-width="8" stroke-linecap="round" stroke-linejoin="round"/>
<path d="M1174.64 399.572H1128.44L1127.62 395.018H1175.46L1174.64 399.572Z" fill="#90ADC6"/>
<path d="M1176.91 386.974H1126.19L1125.2 381.464H1177.89L1176.91 386.974Z" fill="#90ADC6"/>
<path d="M1128.44 399.572L1127.62 395.018H1175.46" stroke="#333652" stroke-width="8" stroke-linecap="round" stroke-linejoin="round"/>
<path d="M1126.19 386.974L1125.2 381.464H1177.89" stroke="#333652" stroke-width="8" stroke-linecap="round" stroke-linejoin="round"/>
<path d="M1088.74 392.273H1077.44V378.285H1101.62L1098.33 385.954C1096.68 389.79 1092.91 392.273 1088.74 392.273Z" fill="#29A8DF"/>
<path d="M1214.17 392.273H1225.47V378.285H1201.29L1204.58 385.954C1206.23 389.79 1210 392.273 1214.17 392.273Z" fill="#29A8DF"/>
<path d="M1088.74 392.273H1077.44V378.288H1101.62L1098.33 385.954" stroke="#333652" stroke-width="8" stroke-linecap="round" stroke-linejoin="round"/>
<path d="M1214.17 392.273H1225.47V378.288H1201.29L1204.58 385.954" stroke="#333652" stroke-width="8" stroke-linecap="round" stroke-linejoin="round"/>
<path d="M1112.92 371.423L1101.09 367.462" stroke="#333652" stroke-width="8" stroke-linecap="round" stroke-linejoin="round"/>
<path d="M1189.99 371.423L1201.82 367.462" stroke="#333652" stroke-width="8" stroke-linecap="round" stroke-linejoin="round"/>
<path d="M1092.88 355.961C1130.65 352.42 1168.66 352.315 1206.45 355.646" stroke="#333652" stroke-width="8" stroke-linecap="round" stroke-linejoin="round"/>
<path d="M1066.2 345.405H1073.74C1077.44 345.405 1080.44 348.411 1080.44 352.118L1087.07 356.686L1081.07 364.3L1076.28 358.831H1066.2C1062.5 358.831 1059.49 355.825 1059.49 352.118C1059.49 348.411 1062.5 345.405 1066.2 345.405H1066.2Z" stroke="#333652" stroke-width="8" stroke-linecap="round" stroke-linejoin="round"/>
<path d="M1198.14 372.511L1195.02 381.924L1225.47 378.288L1223.97 372.511H1198.14Z" fill="#29A8DF"/>
<path d="M1221.83 364.3H1211.23C1205.98 364.3 1201.23 366.787 1199.16 370.62L1198.14 372.511H1223.97L1221.84 364.3H1221.83Z" fill="#29A8DF"/>
<path d="M1211.23 364.3H1221.83L1225.47 378.288L1195.02 381.924L1199.16 370.62C1201.24 366.784 1205.98 364.3 1211.23 364.3Z" stroke="#333652" stroke-width="8" stroke-linecap="round" stroke-linejoin="round"/>
<path d="M1203.66 372.511H1219.65" stroke="white" stroke-width="8" stroke-linecap="round" stroke-linejoin="round"/>
<path d="M1103.75 370.62C1101.67 366.784 1096.93 364.3 1091.68 364.3H1081.07L1078.94 372.511H1104.77L1103.75 370.62H1103.75Z" fill="#29A8DF"/>
<path d="M1078.94 372.511L1077.44 378.288L1107.88 381.924L1104.77 372.511H1078.94Z" fill="#29A8DF"/>
<path d="M1091.67 364.3H1081.07L1077.44 378.288L1107.88 381.924L1103.74 370.62C1101.67 366.784 1096.92 364.3 1091.67 364.3Z" stroke="#333652" stroke-width="8" stroke-linecap="round" stroke-linejoin="round"/>
<path d="M1083.56 372.511H1099.55" stroke="white" stroke-width="8" stroke-linecap="round" stroke-linejoin="round"/>
<path d="M1081.07 364.3L1087.07 356.686L1093.31 330.658C1094.88 324.141 1100.7 319.546 1107.4 319.546H1195.51C1202.21 319.546 1208.03 324.141 1209.59 330.658L1215.84 356.686L1221.83 364.3" stroke="#333652" stroke-width="8" stroke-linecap="round" stroke-linejoin="round"/>
<path d="M1114 313.945H1109.14L1108.05 319.567H1115.09L1114 313.945Z" stroke="#333652" stroke-width="8" stroke-linecap="round" stroke-linejoin="round"/>
<path d="M1188.91 313.945H1193.76L1194.86 319.567H1187.82L1188.91 313.945Z" stroke="#333652" stroke-width="8" stroke-linecap="round" stroke-linejoin="round"/>
<path d="M1139.49 303.215C1140.91 300.415 1144.51 299.217 1147.53 300.536C1150.55 301.854 1151.84 305.193 1150.42 307.993C1149 310.793 1140.18 315 1140.18 315C1140.18 315 1138.07 306.012 1139.49 303.215H1139.49Z" fill="#29A8DF"/>
<path d="M1125.24 295.889C1124.36 292.649 1126.01 289.235 1128.95 288.261C1131.88 287.287 1134.97 289.121 1135.85 292.36C1136.73 295.6 1133.5 305 1133.5 305C1133.5 305 1126.11 299.128 1125.23 295.889H1125.24Z" fill="#29A8DF"/>
<path d="M1069.94 377.685C1067.29 379.761 1063.44 379.333 1061.33 376.726C1059.23 374.124 1059.66 370.331 1062.31 368.255C1064.95 366.179 1075 366 1075 366C1075 366 1072.58 375.61 1069.94 377.685H1069.94Z" fill="#29A8DF"/>
<path d="M662.065 329.526H728.318C730.747 329.526 732.884 328.757 732.884 333.924V425.875H657.669V333.924C657.669 331.495 659.637 329.526 662.065 329.526Z" fill="white"/>
<path d="M665.77 329.526H728.257C730.682 329.526 732.653 331.498 732.653 333.924V341.725H661.377V333.924C661.377 331.498 663.348 329.526 665.773 329.526H665.77Z" fill="#BED5E5"/>
<path d="M719.673 375.927C721.747 363.419 713.294 351.596 700.792 349.521C688.29 347.446 676.474 355.903 674.4 368.412C672.326 380.92 680.779 392.743 693.281 394.818C705.783 396.893 717.599 388.435 719.673 375.927Z" fill="#C5DDEF"/>
<path d="M666.095 329.526H728.582C731.007 329.526 732.978 331.498 732.978 333.924V425.875H661.702V333.924C661.702 331.498 663.674 329.526 666.099 329.526H666.095Z" stroke="#333652" stroke-width="8" stroke-linecap="round" stroke-linejoin="round"/>
<path d="M666.095 329.526H728.582C731.007 329.526 732.978 331.498 732.978 333.924V341.725H661.702V333.924C661.702 331.498 663.674 329.526 666.099 329.526H666.095Z" stroke="#333652" stroke-width="8" stroke-linecap="round" stroke-linejoin="round"/>
<path d="M701.782 394.906C696.472 394.984 691.134 392.998 687.08 388.942C680.72 382.578 680.72 372.26 687.08 365.896C692.167 360.806 700.417 360.806 705.508 365.896C709.579 369.969 709.579 376.574 705.508 380.647C702.25 383.907 696.97 383.907 693.715 380.647C691.11 378.041 691.11 373.815 693.715 371.206C695.798 369.122 699.178 369.122 701.264 371.206C702.93 372.873 702.93 375.581 701.264 377.248C699.93 378.583 697.769 378.583 696.435 377.248C695.368 376.181 695.368 374.449 696.435 373.382" stroke="#333652" stroke-width="8" stroke-linecap="round" stroke-linejoin="round"/>
<path d="M719.728 377.151C722.49 364.776 714.703 352.504 702.335 349.74C689.967 346.977 677.702 354.768 674.939 367.142C672.177 379.517 679.964 391.789 692.332 394.552C704.7 397.316 716.965 389.525 719.728 377.151Z" stroke="#333652" stroke-width="8" stroke-linecap="round" stroke-linejoin="round"/>
<path d="M602.606 332.583V378.512C609.328 377.553 614.5 371.772 614.5 364.778V332.583H602.606Z" fill="white"/>
<path d="M568.788 332.583V364.778C568.788 372.44 574.996 378.654 582.657 378.654H600.634C601.305 378.654 601.962 378.604 602.609 378.512V332.583H568.791H568.788Z" fill="url(#paint15_linear_6_11)"/>
<path d="M578.772 322.589C573.259 322.589 568.785 327.062 568.785 332.583H602.602V322.589H578.772Z" fill="url(#paint16_linear_6_11)"/>
<path d="M614.5 332.583C614.5 327.066 610.029 322.589 604.512 322.589H602.606V332.583H614.5Z" fill="white"/>
<path d="M572.842 332.583H618.554V364.778C618.554 372.436 612.339 378.654 604.685 378.654H586.708C579.053 378.654 572.839 372.436 572.839 364.778V332.583H572.842Z" stroke="#333652" stroke-width="8" stroke-linecap="round" stroke-linejoin="round"/>
<path d="M582.83 322.589H608.57C614.08 322.589 618.558 327.066 618.558 332.583H572.845C572.845 327.069 577.319 322.589 582.833 322.589H582.83Z" stroke="#333652" stroke-width="8" stroke-linecap="round" stroke-linejoin="round"/>
<path d="M568.788 383.426V387.665C568.788 393.744 571.159 399.264 575.026 403.358C577.289 405.753 577.777 409.4 575.965 412.154C574.031 415.096 572.906 418.617 572.906 422.402V425.875H591.795V383.426H568.791H568.788Z" fill="url(#paint17_linear_6_11)"/>
<path d="M614.5 387.661V383.422H591.795V425.872H610.385V422.398C610.385 418.613 609.257 415.092 607.327 412.151C605.518 409.396 606.003 405.753 608.265 403.354C612.133 399.261 614.504 393.737 614.504 387.661H614.5Z" fill="white"/>
<path d="M618.554 387.661V383.422H572.842V387.661C572.842 393.741 575.213 399.261 579.081 403.354C581.343 405.75 581.831 409.396 580.019 412.151C578.085 415.092 576.96 418.613 576.96 422.398V425.872H614.439V422.398C614.439 418.613 613.311 415.092 611.381 412.151C609.572 409.396 610.057 405.753 612.319 403.354C616.187 399.261 618.558 393.737 618.558 387.661H618.554Z" stroke="#333652" stroke-width="8" stroke-linecap="round" stroke-linejoin="round"/>
<path d="M567.03 376.12C564.612 376.12 562.648 378.082 562.648 380.505C562.648 382.924 564.609 384.89 567.03 384.89H591.642V376.123H567.03V376.12Z" fill="url(#paint18_linear_6_11)"/>
<path d="M615.956 376.12H591.642V384.886H615.956C618.375 384.886 620.339 382.924 620.339 380.501C620.339 378.082 618.378 376.116 615.956 376.116V376.12Z" fill="white"/>
<path d="M620.163 384.886H571.237C568.818 384.886 566.854 382.924 566.854 380.501C566.854 378.082 568.815 376.116 571.237 376.116H620.163C622.581 376.116 624.545 378.078 624.545 380.501C624.545 382.921 622.584 384.886 620.163 384.886Z" stroke="#333652" stroke-width="8" stroke-linecap="round" stroke-linejoin="round"/>
<path d="M612.881 341.054H622.222C623.838 341.054 625.148 339.743 625.148 338.126C625.148 336.51 623.838 335.199 622.222 335.199H612.881C611.266 335.199 609.955 336.51 609.955 338.126C609.955 339.743 611.266 341.054 612.881 341.054Z" fill="#E3E3E3"/>
<path d="M612.881 341.054H622.222C623.838 341.054 625.148 339.743 625.148 338.126C625.148 336.51 623.838 335.199 622.222 335.199H612.881C611.266 335.199 609.955 336.51 609.955 338.126C609.955 339.743 611.266 341.054 612.881 341.054Z" stroke="#333652" stroke-width="8" stroke-linecap="round" stroke-linejoin="round"/>
<path d="M422.957 292.969C402.22 278.981 289.055 231.72 226.771 404.432L318.714 404.557C356.68 258.151 409.143 296.775 418.626 299.316" fill="url(#paint19_linear_6_11)"/>
<path d="M427.001 314.199C379.965 460.507 525.822 465.251 525.822 384.117" stroke="#333652" stroke-width="13" stroke-linecap="round" stroke-linejoin="round"/>
<path d="M429.25 319.221C429.298 318.11 429.663 317.002 430.364 316.036C432.268 313.413 435.936 312.834 438.554 314.738L445.06 319.767L454.811 310.719C457.185 308.516 460.893 308.655 463.098 311.031C465.3 313.406 465.161 317.117 462.787 319.323L449.504 331.654C447.451 333.562 444.335 333.748 442.069 332.101L431.662 324.236C430.009 323.033 429.166 321.129 429.25 319.228V319.221Z" fill="#FFD799"/>
<path d="M427.001 312.823C428.62 309.37 431.838 308.967 431.838 308.967L433.568 303.379C433.955 302.136 435.272 301.441 436.515 301.824C437.758 302.21 438.452 303.528 438.07 304.772L435.675 312.901L438.544 314.918L432.397 325.056L426.754 320.807" fill="#FFD799"/>
<path d="M427.001 312.823C428.62 309.37 431.838 308.967 431.838 308.967L433.568 303.379C433.955 302.136 435.272 301.441 436.515 301.824C437.758 302.21 438.452 303.528 438.07 304.772L435.675 312.901L438.544 314.918" stroke="#333652" stroke-width="8" stroke-linecap="round" stroke-linejoin="round"/>
<path d="M463.098 311.027C465.3 313.403 465.161 317.113 462.787 319.319L449.504 331.651C447.451 333.558 444.335 333.745 442.069 332.098L428.336 322.003" stroke="#333652" stroke-width="8" stroke-linecap="round" stroke-linejoin="round"/>
<path d="M438.544 314.921L445.06 319.767" stroke="#333652" stroke-width="8" stroke-linecap="round" stroke-linejoin="round"/>
<path d="M462.526 429.443H464.484C469.018 429.443 472.703 433.127 472.703 437.668V441.066H454.309V437.668C454.309 433.13 457.991 429.443 462.529 429.443H462.526Z" fill="#7593AA"/>
<path d="M500.994 348.567C499.835 348.567 498.667 348.238 497.631 347.554C494.819 345.693 494.047 341.905 495.907 339.092L505.132 325.131L495.28 315.402C492.882 313.033 492.855 309.167 495.226 306.768C497.593 304.369 501.458 304.342 503.859 306.714L517.281 319.97C519.357 322.02 519.692 325.25 518.084 327.683L506.087 345.832C504.912 347.608 502.972 348.57 500.994 348.57V348.567Z" fill="#FFD799"/>
<path d="M510.927 313.84L517.129 319.967C519.205 322.017 519.54 325.246 517.931 327.679L505.935 345.829C504.76 347.604 502.819 348.567 500.841 348.567C499.683 348.567 498.514 348.238 497.478 347.554C494.667 345.693 493.895 341.905 495.754 339.092L504.98 325.131L502.389 322.572" stroke="#333652" stroke-width="8" stroke-linecap="round" stroke-linejoin="round"/>
<path d="M476.757 352.155L456.45 352.162L454.194 419.321C453.957 425.082 458.56 424.987 464.324 424.984H464.341C469.777 424.984 474.244 425.587 474.468 420.152L476.757 352.152V352.155Z" fill="#90ADC6"/>
<path d="M496.401 352.149L476.094 352.155L478.41 420.152C478.637 425.584 483.104 424.977 488.54 424.974H488.557C494.318 424.974 498.924 425.065 498.684 419.304L496.404 352.145L496.401 352.149Z" fill="#7593AA"/>
<path d="M496.249 352.155L476.602 352.162H475.941L456.294 352.169L454.038 419.328C453.801 425.089 458.404 424.994 464.169 424.991C469.611 424.991 474.082 425.584 474.295 420.145L476.273 357.865L478.271 420.142C478.491 425.58 482.962 424.984 488.401 424.98C494.162 424.98 498.768 425.072 498.528 419.311L496.249 352.152V352.155Z" stroke="#333652" stroke-width="8" stroke-linecap="round" stroke-linejoin="round"/>
<path d="M480.707 429.528C481.174 429.528 481.625 429.725 481.933 430.074C483.443 431.778 485.648 432.852 488.1 432.852C490.132 432.852 491.992 432.114 493.424 430.894C494.44 430.03 495.714 429.521 497.052 429.521H497.085C497.885 429.521 498.674 429.694 499.399 430.033L502.985 431.7C506.619 433.391 508.946 437.037 508.946 441.046L479.054 441.056V431.182C479.051 430.267 479.789 429.528 480.703 429.525L480.707 429.528Z" fill="#7593AA"/>
<path d="M480.534 429.538C481.001 429.538 481.452 429.735 481.76 430.084C483.27 431.788 485.475 432.863 487.927 432.863C489.959 432.863 491.819 432.124 493.251 430.904C494.267 430.04 495.541 429.532 496.879 429.532H496.913C497.712 429.532 498.501 429.704 499.226 430.043L502.812 431.711C506.446 433.401 508.773 437.048 508.773 441.056L478.881 441.067V431.192C478.878 430.277 479.616 429.538 480.53 429.535L480.534 429.538Z" stroke="#333652" stroke-width="8" stroke-linecap="round" stroke-linejoin="round"/>
<path d="M462.519 429.45H464.477C469.012 429.45 472.697 433.134 472.697 437.674V441.073H454.303V437.674C454.303 433.137 457.984 429.45 462.523 429.45H462.519Z" stroke="#333652" stroke-width="8" stroke-linecap="round" stroke-linejoin="round"/>
<path d="M504.204 301.532C500.685 298.266 496.14 296.47 491.412 296.47L475.938 296.477H469.262C464.318 296.48 459.62 298.645 456.403 302.4L446.354 314.128L456.301 323.532L456.311 352.165L475.958 352.159L496.249 352.152L495.592 319.577L500.293 323.986L513.505 310.17L504.198 301.532H504.204Z" fill="white"/>
<path d="M504.198 301.539C500.679 298.273 496.133 296.477 491.405 296.477L475.931 296.483H469.256C464.311 296.487 459.613 298.652 456.396 302.407L446.347 314.135L456.294 323.538L456.304 352.172L475.951 352.165L496.242 352.159L495.585 319.584L500.286 323.992L513.498 310.177L504.191 301.539H504.198Z" stroke="#333652" stroke-width="8" stroke-linecap="round" stroke-linejoin="round"/>
<path d="M494.623 353.108L500.891 350.734C502.376 350.171 503.124 348.51 502.562 347.024L499.443 338.785C498.881 337.299 497.221 336.55 495.736 337.113L489.468 339.488C487.983 340.051 487.235 341.711 487.797 343.197L490.915 351.437C491.478 352.923 493.138 353.671 494.623 353.108Z" fill="#FFD799"/>
<path d="M494.623 353.108L500.891 350.734C502.376 350.171 503.124 348.51 502.562 347.024L499.443 338.785C498.881 337.299 497.221 336.55 495.736 337.113L489.468 339.488C487.983 340.051 487.235 341.711 487.797 343.197L490.915 351.437C491.478 352.923 493.138 353.671 494.623 353.108Z" stroke="#333652" stroke-width="8" stroke-linecap="round" stroke-linejoin="round"/>
<path d="M419.631 320.034L426.755 322.076C428.066 322.452 429.433 321.694 429.809 320.382L432.383 311.395C432.758 310.083 432 308.715 430.689 308.339L423.566 306.297C422.255 305.921 420.888 306.68 420.512 307.991L417.938 316.979C417.562 318.29 418.321 319.658 419.631 320.034Z" fill="#FFD799"/>
<path d="M419.631 320.034L426.755 322.076C428.066 322.452 429.433 321.694 429.809 320.382L432.383 311.395C432.758 310.083 432 308.715 430.689 308.339L423.566 306.297C422.255 305.921 420.888 306.68 420.512 307.991L417.938 316.979C417.562 318.29 418.321 319.658 419.631 320.034Z" stroke="#333652" stroke-width="8" stroke-linecap="round" stroke-linejoin="round"/>
<path d="M487.392 260.994C480.012 257.423 470.773 261.269 466.756 269.578C466.123 270.889 463.288 273.407 462.983 274.755C462.563 276.612 464.812 277.3 464.975 279.096C465.069 280.157 465.269 281.194 465.561 282.194L471.691 281.556L466.929 285.48C468.284 287.876 470.285 289.852 472.849 291.095C480.229 294.664 489.468 290.821 493.485 282.512C497.502 274.2 494.772 264.569 487.392 261.001V260.994Z" fill="#FFD799"/>
<path d="M472.951 262.268C470.349 263.973 468.107 266.46 466.604 269.578C465.97 270.889 463.136 273.407 462.831 274.755C462.411 276.612 464.66 277.3 464.822 279.096C464.917 280.157 465.117 281.194 465.408 282.194L471.538 281.556L466.776 285.48C468.131 287.876 470.133 289.852 472.697 291.095C478.505 293.905 485.468 292.122 490.125 287.182" stroke="#333652" stroke-width="8" stroke-linecap="round" stroke-linejoin="round"/>
<path d="M473.33 252.177C467.315 251.459 470.587 267.307 484.249 267.226C484.249 267.226 490.603 274.057 484.642 281.16C484.642 281.16 488.577 288.917 495.947 288.303C495.947 288.303 517.576 257.463 473.327 252.177H473.33Z" fill="#A37C52"/>
<path d="M473.164 252.302C467.149 251.584 470.421 267.433 484.083 267.351C484.083 267.351 490.437 274.183 484.476 281.285C484.476 281.285 488.412 289.042 495.781 288.429C495.781 288.429 517.41 257.589 473.161 252.302H473.164Z" stroke="#333652" stroke-width="8" stroke-linecap="round" stroke-linejoin="round"/>
<path d="M409.446 298.354L414.503 301.336L422.105 288.433L417.049 285.451L409.446 298.354Z" fill="#FFC357"/>
<path d="M414.541 301.329L422.145 288.425L434.652 301.116L429.917 317.239C429.457 318.811 427.828 319.733 426.243 319.319C424.549 318.879 423.581 317.103 424.123 315.439L426.71 307.513C427.164 306.127 426.368 304.643 424.966 304.25L414.538 301.326L414.541 301.329Z" fill="#FFC357"/>
<path d="M409.446 298.354L414.503 301.336L422.105 288.433L417.049 285.451L409.446 298.354Z" stroke="#333652" stroke-width="8" stroke-linecap="round" stroke-linejoin="round"/>
<path d="M414.541 301.329L422.145 288.425L434.652 301.116L429.917 317.239C429.457 318.811 427.828 319.733 426.243 319.319C424.549 318.879 423.581 317.103 424.123 315.439L426.71 307.513C427.164 306.127 426.368 304.643 424.966 304.25L414.538 301.326L414.541 301.329Z" stroke="#333652" stroke-width="8" stroke-linecap="round" stroke-linejoin="round"/>
<path d="M419.631 320.034L426.755 322.076C428.066 322.452 429.433 321.694 429.809 320.382L432.383 311.395C432.758 310.083 432 308.715 430.689 308.339L423.566 306.297C422.255 305.921 420.888 306.68 420.512 307.991L417.938 316.979C417.562 318.29 418.321 319.658 419.631 320.034Z" fill="#FFD799"/>
<path d="M419.631 320.034L426.755 322.076C428.066 322.452 429.433 321.694 429.809 320.382L432.383 311.395C432.758 310.083 432 308.715 430.689 308.339L423.566 306.297C422.255 305.921 420.888 306.68 420.512 307.991L417.938 316.979C417.562 318.29 418.321 319.658 419.631 320.034Z" stroke="#333652" stroke-width="8" stroke-linecap="round" stroke-linejoin="round"/>
<path d="M523.015 371.833H528.434V363.362C528.434 360.84 530.486 358.787 533.006 358.787H539.807V353.365H533.006C527.496 353.365 523.015 357.848 523.015 363.362V371.833Z" fill="#C5DDEF"/>
<path d="M523.015 371.833H528.434V363.362C528.434 360.84 530.486 358.787 533.006 358.787H539.807V353.365H533.006C527.496 353.365 523.015 357.848 523.015 363.362V371.833Z" stroke="#333652" stroke-width="8" stroke-linecap="round" stroke-linejoin="round"/>
<path d="M539.807 351.047H534.784V361.105H539.807V351.047Z" fill="#C5DDEF"/>
<path d="M539.807 351.047H534.784V361.105H539.807V351.047Z" stroke="#333652" stroke-width="8" stroke-linecap="round" stroke-linejoin="round"/>
<path d="M528.461 371.701H523.184C522.062 371.701 521.152 372.611 521.152 373.734V382.087C521.152 383.21 522.062 384.12 523.184 384.12H528.461C529.583 384.12 530.493 383.21 530.493 382.087V373.734C530.493 372.611 529.583 371.701 528.461 371.701Z" fill="#B8CC71"/>
<path d="M528.461 371.701H523.184C522.062 371.701 521.152 372.611 521.152 373.734V382.087C521.152 383.21 522.062 384.12 523.184 384.12H528.461C529.583 384.12 530.493 383.21 530.493 382.087V373.734C530.493 372.611 529.583 371.701 528.461 371.701Z" stroke="#333652" stroke-width="8" stroke-linecap="round" stroke-linejoin="round"/>
<path d="M521.152 377.909H530.493" stroke="#333652" stroke-width="8" stroke-linecap="round" stroke-linejoin="round"/>
<path d="M237.772 368.129C237.772 368.129 241.023 361.447 241.728 356.283C242.432 351.118 247.746 353.965 248.163 354.744C248.576 355.52 244.928 357.12 244.773 359.963C244.62 362.806 248.379 367.499 247.092 368.075C245.809 368.651 237.772 368.133 237.772 368.133V368.129Z" fill="url(#paint20_linear_6_11)"/>
<path d="M240.698 368.458C240.698 368.458 243.95 361.776 244.654 356.611C245.358 351.447 250.672 354.294 251.089 355.073C251.502 355.849 247.855 357.448 247.699 360.291C247.546 363.135 251.306 367.828 250.019 368.404C248.735 368.98 240.698 368.461 240.698 368.461V368.458Z" stroke="#333652" stroke-width="8" stroke-linecap="round" stroke-linejoin="round"/>
<path d="M266.052 383.639C266.418 394.815 256.125 400.806 243.204 401.23C230.284 401.653 219.622 396.347 219.256 385.171C218.89 373.995 229.19 368.251 242.11 367.828C255.031 367.404 265.683 372.463 266.049 383.639H266.052Z" fill="#FFC357"/>
<path d="M258.577 383.883C258.943 395.059 252 400.942 243.204 401.23C234.409 401.518 227.097 396.099 226.731 384.927C226.365 373.751 233.318 368.116 242.11 367.828C250.903 367.54 258.208 372.711 258.574 383.883H258.577Z" fill="#FFD799"/>
<path d="M250.964 384.134C251.329 395.31 247.794 401.08 243.204 401.23C238.615 401.379 234.71 395.852 234.348 384.676C233.982 373.5 237.525 367.977 242.114 367.828C246.703 367.679 250.598 372.958 250.964 384.134Z" fill="#FFD188"/>
<path d="M268.982 384.042C269.347 395.218 259.058 401.209 246.134 401.633C233.213 402.056 222.551 396.75 222.186 385.574C221.82 374.398 232.119 368.655 245.04 368.231C257.961 367.807 268.612 372.867 268.978 384.042H268.982Z" stroke="#333652" stroke-width="8" stroke-linecap="round" stroke-linejoin="round"/>
<path d="M261.507 384.286C261.873 395.462 254.93 401.345 246.134 401.633C237.342 401.921 230.026 396.502 229.66 385.33C229.295 374.154 236.248 368.519 245.04 368.231C253.832 367.943 261.138 373.114 261.503 384.286H261.507Z" stroke="#333652" stroke-width="8" stroke-linecap="round" stroke-linejoin="round"/>
<path d="M253.89 384.537C254.256 395.713 250.72 401.484 246.131 401.633C241.541 401.782 237.636 396.255 237.274 385.079C236.908 373.904 240.451 368.38 245.04 368.231C249.629 368.082 253.524 373.361 253.89 384.537Z" stroke="#333652" stroke-width="8" stroke-linecap="round" stroke-linejoin="round"/>
<path d="M250.198 368.099C250.198 368.099 256.637 352.098 262.564 356.14C268.491 360.183 259.532 367.95 257.155 364.422C254.777 360.895 259.654 359.37 259.654 359.37" stroke="#333652" stroke-width="8" stroke-linecap="round" stroke-linejoin="round"/>
<path d="M370.238 414.706V429.742C370.238 435.994 375.301 441.06 381.55 441.06H385.421V414.706H370.238Z" fill="#90ADC6"/>
<path d="M385.421 414.706V441.06H389.377C395.626 441.06 400.689 435.994 400.689 429.742V414.706H385.418H385.421Z" fill="#C5DDEF"/>
<path d="M380.751 407.309C377.625 396.536 374.329 386.852 371.505 378.746C365.822 362.525 365.019 352.47 364.406 352.474C364.233 352.481 362.106 362.585 366.394 378.861C368.328 386.997 372.216 396.672 376.25 407.421C377.123 409.796 378.007 412.226 378.857 414.703H382.746C382.109 412.185 381.435 409.718 380.751 407.305V407.309Z" fill="url(#paint21_linear_6_11)"/>
<path d="M380.341 407.268C377.215 396.496 373.919 386.811 371.095 378.705C365.412 362.484 364.609 352.43 363.996 352.433C363.823 352.44 361.696 362.545 365.984 378.82C367.918 386.957 371.806 396.628 375.84 407.38C376.72 409.769 377.604 412.212 378.461 414.703H382.346C381.706 412.171 381.028 409.691 380.344 407.265L380.341 407.268Z" stroke="#333652" stroke-width="8" stroke-linecap="round" stroke-linejoin="round"/>
<path d="M406.118 386.103C413.234 372.667 418.578 364.412 418.277 364.276C417.918 364.1 409.993 371.274 401.343 384.71C396.154 392.588 392.025 402.934 389.573 414.703H393.702C397.228 403.541 402.139 393.856 406.118 386.099V386.103Z" fill="url(#paint22_linear_6_11)"/>
<path d="M405.712 386.065C412.827 372.629 418.172 364.375 417.87 364.239C417.511 364.063 409.586 371.237 400.936 384.673C395.741 392.561 391.609 402.917 389.16 414.706H393.282C396.808 403.527 401.725 393.829 405.712 386.065Z" stroke="#333652" stroke-width="8" stroke-linecap="round" stroke-linejoin="round"/>
<path d="M382.654 373.551C380.544 355.971 377.618 345.236 377.391 345.239C376.832 345.266 376.842 356.11 377.55 373.707C377.885 384.971 379.735 399.01 381.78 414.706H385.469C384.703 398.932 384.141 384.825 382.654 373.551Z" fill="url(#paint23_linear_6_11)"/>
<path d="M382.244 373.514C380.134 355.934 377.208 345.198 376.981 345.202C376.422 345.229 376.432 356.073 377.14 373.67C377.476 384.944 379.328 398.996 381.377 414.706H385.062C384.293 398.918 383.735 384.795 382.248 373.514H382.244Z" stroke="#333652" stroke-width="8" stroke-linecap="round" stroke-linejoin="round"/>
<path d="M391.666 405.57C394.017 394.205 396.388 383.971 397.052 375.428C398.792 358.323 395.108 347.96 394.935 347.964C394.322 347.994 395.084 358.462 391.941 375.584C390.386 384.137 388.605 394.354 387.165 405.692C386.813 408.624 386.485 411.633 386.217 414.703H389.949C390.478 411.589 391.07 408.539 391.666 405.567V405.57Z" fill="url(#paint24_linear_6_11)"/>
<path d="M391.26 405.533C393.611 394.168 395.981 383.934 396.645 375.391C398.386 358.285 394.701 347.923 394.528 347.926C393.915 347.957 394.677 358.424 391.534 375.547C389.98 384.1 388.198 394.317 386.759 405.655C386.403 408.6 386.075 411.619 385.807 414.706H389.536C390.065 411.578 390.661 408.515 391.26 405.533Z" stroke="#333652" stroke-width="8" stroke-linecap="round" stroke-linejoin="round"/>
<path d="M387.745 379.8C387.033 363.473 384.964 353.507 384.737 353.511C384.178 353.538 383.328 363.609 382.637 379.952C382.122 389.613 382.708 401.467 383.426 414.703H387.399C387.853 401.389 388.29 389.468 387.745 379.796V379.8Z" fill="url(#paint25_linear_6_11)"/>
<path d="M387.745 379.8C387.033 363.473 384.964 353.507 384.737 353.511C384.178 353.538 383.328 363.609 382.637 379.952C382.122 389.613 382.708 401.467 383.426 414.703H387.399C387.853 401.389 388.29 389.468 387.745 379.796V379.8Z" stroke="#333652" stroke-width="8" stroke-linecap="round" stroke-linejoin="round"/>
<path d="M403.144 379.705C409.376 364.744 414.274 355.551 413.925 355.402C413.512 355.205 405.668 363.189 397.756 378.153C392.611 387.624 389.147 400.294 388.07 414.71H392.249C394.704 400.945 399.392 389.064 403.141 379.705H403.144Z" fill="url(#paint26_linear_6_11)"/>
<path d="M403.592 379.793C409.61 364.788 414.27 355.551 413.962 355.408C413.596 355.222 406.315 363.317 398.782 378.353C393.912 387.831 390.457 400.426 389.082 414.706H392.852C395.443 401.013 399.971 389.146 403.592 379.793Z" stroke="#333652" stroke-width="8" stroke-linecap="round" stroke-linejoin="round"/>
<path d="M369.239 385.676C359.448 372.873 350.479 366.327 350.073 366.533C349.731 366.696 355.783 374.558 363.84 387.489C368.274 394.839 373.726 403.991 377.706 414.706H382.525C379.741 403.131 375.081 393.127 369.242 385.672L369.239 385.676Z" fill="url(#paint27_linear_6_11)"/>
<path d="M367.871 385.547C358.733 372.579 350.55 365.832 350.202 366.028C349.903 366.177 355.549 374.144 363.153 387.19C367.363 394.635 372.551 403.913 376.466 414.706H380.686C377.804 403.154 373.317 393.104 367.871 385.547Z" stroke="#333652" stroke-width="8" stroke-linecap="round" stroke-linejoin="round"/>
<path d="M369.906 414.706H400.357V429.742C400.357 435.987 395.287 441.06 389.045 441.06H381.218C374.976 441.06 369.906 435.987 369.906 429.742V414.706Z" stroke="#333652" stroke-width="8" stroke-linecap="round" stroke-linejoin="round"/>
<path d="M327.313 400.576C326.172 398.614 322.426 379.508 321.003 378.19C319.422 376.726 317.86 374.835 318.084 372.694C318.277 370.85 319.862 369.336 321.66 368.892C323.459 368.448 325.393 368.936 326.995 369.871C327.459 370.142 327.94 370.461 328.475 370.447C328.946 370.437 329.369 370.173 329.758 369.902C330.876 369.122 331.912 368.231 333.091 367.55C334.27 366.869 335.635 366.408 336.983 366.598C338.331 366.787 339.621 367.76 339.878 369.095C340.048 369.983 339.763 370.935 340.068 371.786C340.542 373.111 342.232 373.666 342.767 374.968C343.309 376.289 342.347 377.855 341.04 378.434C339.733 379.014 338.226 378.844 336.827 378.556C336.099 378.407 335.174 378.302 334.778 378.929C334.425 379.488 334.771 380.213 335.15 380.755C336.275 382.372 337.69 383.785 339.313 384.906C340.19 385.513 341.223 386.181 341.331 387.241C341.423 388.132 340.8 388.932 340.129 389.529C339.062 390.481 337.785 391.196 336.417 391.606C335.472 391.89 334.442 392.05 333.684 392.68C332.749 393.456 332.458 394.734 332.011 395.862C331.327 397.594 330.168 399.135 328.695 400.274" fill="#B8CC71"/>
<path d="M336.478 367.55C337.657 366.869 339.021 366.408 340.369 366.598C341.717 366.787 343.008 367.76 343.265 369.095C343.434 369.983 343.15 370.935 343.455 371.786C343.929 373.111 345.619 373.666 346.154 374.968C346.696 376.289 345.734 377.855 344.427 378.434C343.12 379.014 341.612 378.844 340.214 378.556C339.485 378.407 338.561 378.302 338.165 378.929C337.812 379.488 338.158 380.213 338.537 380.755C339.662 382.372 341.077 383.785 342.7 384.906C343.577 385.513 344.61 386.181 344.718 387.241C344.81 388.132 344.186 388.932 343.516 389.529C342.449 390.481 341.172 391.196 339.804 391.606C338.859 391.89 337.829 392.05 337.071 392.68C336.136 393.456 335.845 394.734 335.398 395.862C334.713 397.594 333.555 399.135 332.082 400.274" stroke="#333652" stroke-width="8" stroke-linecap="round" stroke-linejoin="round"/>
<path d="M327.872 401.565C328.695 399.45 328.031 397.061 327.164 394.964C326.3 392.866 325.217 390.762 325.21 388.492C325.203 386.55 325.996 384.683 327.052 383.056C328.109 381.43 329.427 379.993 330.629 378.468C331.963 376.777 333.213 374.666 332.658 372.585C332.18 370.793 330.378 369.546 328.532 369.387C326.687 369.227 324.851 370.01 323.415 371.183C322.998 371.521 322.575 371.911 322.043 371.982C321.576 372.047 321.115 371.85 320.692 371.643C319.469 371.047 318.304 370.329 317.034 369.837C315.764 369.349 314.342 369.105 313.041 369.502C311.74 369.898 310.613 371.06 310.569 372.419C310.538 373.324 310.968 374.219 310.799 375.107C310.538 376.489 308.953 377.302 308.628 378.671C308.296 380.061 309.492 381.457 310.873 381.826C312.255 382.196 313.718 381.796 315.056 381.291C315.75 381.03 316.648 380.783 317.139 381.342C317.576 381.836 317.346 382.609 317.058 383.205C316.198 384.978 315.019 386.594 313.593 387.953C312.821 388.688 311.906 389.508 311.964 390.572C312.011 391.467 312.753 392.162 313.505 392.646C314.707 393.419 316.079 393.927 317.495 394.12C318.473 394.252 319.513 394.252 320.36 394.757C321.403 395.377 321.891 396.594 322.507 397.641C323.452 399.247 324.834 400.589 326.47 401.484" fill="#6AA053"/>
<path d="M331.259 401.565C332.082 399.45 331.418 397.061 330.551 394.964C329.687 392.866 328.603 390.762 328.597 388.492C328.59 386.55 329.382 384.683 330.439 383.056C331.496 381.43 332.813 379.993 334.016 378.468C335.35 376.777 336.6 374.666 336.044 372.585C335.567 370.793 333.765 369.546 331.919 369.387C330.073 369.227 328.238 370.01 326.802 371.183C326.385 371.521 325.962 371.911 325.43 371.982C324.963 372.047 324.502 371.85 324.079 371.643C322.856 371.047 321.691 370.329 320.421 369.837C319.151 369.349 317.728 369.105 316.428 369.502C315.127 369.898 313.999 371.06 313.955 372.419C313.925 373.324 314.355 374.219 314.186 375.107C313.925 376.489 312.34 377.302 312.015 378.671C311.683 380.061 312.878 381.457 314.26 381.826C315.642 382.196 317.105 381.796 318.443 381.291C319.137 381.03 320.035 380.783 320.526 381.342C320.963 381.836 320.732 382.609 320.445 383.205C319.584 384.978 318.406 386.594 316.98 387.953C316.208 388.688 315.293 389.508 315.351 390.572C315.398 391.467 316.14 392.162 316.892 392.646C318.094 393.419 319.466 393.927 320.881 394.12C321.86 394.252 322.9 394.252 323.747 394.757C324.79 395.377 325.278 396.594 325.894 397.641C326.839 399.247 328.221 400.589 329.857 401.484" stroke="#333652" stroke-width="8" stroke-linecap="round" stroke-linejoin="round"/>
<path d="M286.905 400.576C288.046 398.614 291.792 379.508 293.214 378.19C294.796 376.726 296.357 374.835 296.134 372.694C295.941 370.85 294.356 369.336 292.557 368.892C290.759 368.448 288.825 368.936 287.223 369.871C286.759 370.142 286.278 370.461 285.743 370.447C285.272 370.437 284.849 370.173 284.459 369.902C283.342 369.122 282.305 368.231 281.127 367.55C279.948 366.869 278.583 366.408 277.235 366.598C275.887 366.787 274.597 367.76 274.34 369.095C274.17 369.983 274.455 370.935 274.15 371.786C273.676 373.111 271.986 373.666 271.451 374.968C270.909 376.289 271.871 377.855 273.178 378.434C274.485 379.014 275.992 378.844 277.391 378.556C278.119 378.407 279.044 378.302 279.44 378.929C279.792 379.488 279.447 380.213 279.068 380.755C277.943 382.372 276.528 383.785 274.905 384.906C274.028 385.513 272.995 386.181 272.887 387.241C272.795 388.132 273.418 388.932 274.089 389.529C275.156 390.481 276.433 391.196 277.801 391.606C278.746 391.89 279.775 392.05 280.534 392.68C281.469 393.456 281.76 394.734 282.207 395.862C282.891 397.594 284.05 399.135 285.523 400.274" fill="#6AA053"/>
<path d="M281.127 367.55C279.948 366.869 278.583 366.408 277.235 366.598C275.887 366.787 274.597 367.76 274.34 369.095C274.17 369.983 274.455 370.935 274.15 371.786C273.676 373.111 271.986 373.666 271.451 374.968C270.909 376.289 271.871 377.855 273.178 378.434C274.485 379.014 275.992 378.844 277.391 378.556C278.119 378.407 279.044 378.302 279.44 378.929C279.792 379.488 279.447 380.213 279.068 380.755C277.943 382.372 276.528 383.785 274.905 384.906C274.028 385.513 272.995 386.181 272.887 387.241C272.795 388.132 273.418 388.932 274.089 389.529C275.156 390.481 276.433 391.196 277.801 391.606C278.746 391.89 279.775 392.05 280.534 392.68C281.469 393.456 281.76 394.734 282.207 395.862C282.891 397.594 284.05 399.135 285.523 400.274" stroke="#333652" stroke-width="8" stroke-linecap="round" stroke-linejoin="round"/>
<path d="M282.956 401.565C282.133 399.45 282.797 397.061 283.664 394.964C284.527 392.866 285.611 390.762 285.618 388.492C285.625 386.55 284.832 384.683 283.775 383.056C282.719 381.43 281.401 379.993 280.199 378.468C278.864 376.777 277.615 374.666 278.17 372.585C278.648 370.793 280.449 369.546 282.295 369.387C284.141 369.227 285.977 370.01 287.413 371.183C287.829 371.521 288.253 371.911 288.784 371.982C289.252 372.047 289.712 371.85 290.136 371.643C291.358 371.047 292.524 370.329 293.794 369.837C295.064 369.349 296.486 369.105 297.787 369.502C299.087 369.898 300.215 371.06 300.259 372.419C300.29 373.324 299.859 374.219 300.029 375.107C300.29 376.489 301.875 377.302 302.2 378.671C302.532 380.061 301.336 381.457 299.954 381.826C298.572 382.196 297.109 381.796 295.772 381.291C295.077 381.03 294.18 380.783 293.689 381.342C293.252 381.836 293.482 382.609 293.77 383.205C294.63 384.978 295.809 386.594 297.235 387.953C298.007 388.688 298.921 389.508 298.864 390.572C298.816 391.467 298.075 392.162 297.323 392.646C296.12 393.419 294.749 393.927 293.333 394.12C292.354 394.252 291.314 394.252 290.468 394.757C289.425 395.377 288.937 396.594 288.32 397.641C287.376 399.247 285.994 400.589 284.358 401.484" fill="#B8CC71"/>
<path d="M286.343 401.565C285.52 399.45 286.183 397.061 287.05 394.964C287.914 392.866 288.998 390.762 289.005 388.492C289.011 386.55 288.219 384.683 287.162 383.056C286.105 381.43 284.788 379.993 283.586 378.468C282.251 376.777 281.002 374.666 281.557 372.585C282.034 370.793 283.836 369.546 285.682 369.387C287.528 369.227 289.364 370.01 290.8 371.183C291.216 371.521 291.64 371.911 292.171 371.982C292.639 372.047 293.099 371.85 293.523 371.643C294.745 371.047 295.91 370.329 297.18 369.837C298.451 369.349 299.873 369.105 301.174 369.502C302.474 369.898 303.602 371.06 303.646 372.419C303.676 373.324 303.246 374.219 303.416 375.107C303.676 376.489 305.261 377.302 305.587 378.671C305.918 380.061 304.723 381.457 303.341 381.826C301.959 382.196 300.496 381.796 299.158 381.291C298.464 381.03 297.567 380.783 297.075 381.342C296.639 381.836 296.869 382.609 297.157 383.205C298.017 384.978 299.196 386.594 300.621 387.953C301.394 388.688 302.308 389.508 302.251 390.572C302.203 391.467 301.461 392.162 300.71 392.646C299.507 393.419 298.136 393.927 296.72 394.12C295.741 394.252 294.701 394.252 293.855 394.757C292.811 395.377 292.324 396.594 291.707 397.641C290.762 399.247 289.381 400.589 287.745 401.484" stroke="#333652" stroke-width="8" stroke-linecap="round" stroke-linejoin="round"/>
<path d="M340.617 421.375H208.005V441.056H340.617V421.375Z" fill="#C3996D"/>
<path d="M340.617 401.694H208.005V421.375H340.617V401.694Z" fill="#CEAC8E"/>
<path d="M344.003 421.375H211.392V441.056H344.003V421.375Z" stroke="#333652" stroke-width="8" stroke-linecap="round" stroke-linejoin="round"/>
<path d="M344.003 401.694H211.392V421.375H344.003V401.694Z" stroke="#333652" stroke-width="8" stroke-linecap="round" stroke-linejoin="round"/>
<path d="M565.04 477L543 496H876L853.96 477H565.04Z" fill="url(#paint28_linear_6_11)"/>
<path d="M899 496H527L568.357 460H857.643L899 496Z" stroke="#333652" stroke-width="8" stroke-linecap="round" stroke-linejoin="round"/>
<path d="M568.106 477L546 496H880L857.894 477H568.106Z" stroke="#333652" stroke-width="8" stroke-linecap="round" stroke-linejoin="round"/>
<path d="M540 425H764V441H544.776V425" stroke="#333652" stroke-width="8" stroke-linecap="round" stroke-linejoin="round"/>
<path d="M867.229 77.7706C872.557 79.1023 877.729 75.5646 878.782 69.8683C879.835 64.172 872.648 48.4521 872.648 48.4521C872.648 48.4521 860.544 59.3466 859.49 65.0429C858.437 70.7392 861.902 76.4389 867.229 77.7706Z" fill="#29A8DF"/>
<path d="M859.101 121.748C864.429 123.08 869.6 119.542 870.654 113.846C871.707 108.15 864.52 92.4298 864.52 92.4298C864.52 92.4298 852.415 103.324 851.362 109.021C850.309 114.717 853.774 120.417 859.101 121.748Z" fill="#29A8DF"/>
<path d="M850.973 165.726C856.3 167.058 861.472 163.52 862.525 157.824C863.578 152.127 856.392 136.408 856.392 136.408C856.392 136.408 844.287 147.302 843.234 152.998C842.18 158.695 845.645 164.394 850.973 165.726Z" fill="#29A8DF"/>
<path d="M870.616 77.7706C875.944 79.1023 881.116 75.5646 882.169 69.8683C883.222 64.172 876.035 48.4521 876.035 48.4521C876.035 48.4521 863.931 59.3466 862.877 65.0429C861.824 70.7392 865.289 76.4389 870.616 77.7706Z" stroke="#333652" stroke-width="8" stroke-linecap="round" stroke-linejoin="round"/>
<path d="M862.488 121.748C867.815 123.08 872.987 119.542 874.04 113.846C875.094 108.15 867.907 92.4298 867.907 92.4298C867.907 92.4298 855.802 103.324 854.749 109.021C853.696 114.717 857.16 120.417 862.488 121.748Z" stroke="#333652" stroke-width="8" stroke-linecap="round" stroke-linejoin="round"/>
<path d="M854.359 165.726C859.687 167.058 864.859 163.52 865.912 157.824C866.965 152.127 859.778 136.408 859.778 136.408C859.778 136.408 847.674 147.302 846.62 152.998C845.567 158.695 849.032 164.394 854.359 165.726Z" stroke="#333652" stroke-width="8" stroke-linecap="round" stroke-linejoin="round"/>
<path d="M822.147 77.7706C827.475 79.1023 832.646 75.5646 833.7 69.8683C834.753 64.172 827.566 48.4521 827.566 48.4521C827.566 48.4521 815.462 59.3466 814.408 65.0429C813.355 70.7392 816.82 76.4389 822.147 77.7706Z" fill="#29A8DF"/>
<path d="M814.019 121.748C819.346 123.08 824.518 119.542 825.571 113.846C826.625 108.15 819.438 92.4298 819.438 92.4298C819.438 92.4298 807.333 103.324 806.28 109.021C805.226 114.717 808.691 120.417 814.019 121.748Z" fill="#29A8DF"/>
<path d="M805.89 165.726C811.218 167.058 816.39 163.52 817.443 157.824C818.496 152.127 811.309 136.408 811.309 136.408C811.309 136.408 799.205 147.302 798.151 152.998C797.098 158.695 800.563 164.394 805.89 165.726Z" fill="#29A8DF"/>
<path d="M825.534 77.7706C830.862 79.1023 836.033 75.5646 837.087 69.8683C838.14 64.172 830.953 48.4521 830.953 48.4521C830.953 48.4521 818.849 59.3466 817.795 65.0429C816.742 70.7392 820.207 76.4389 825.534 77.7706Z" stroke="#333652" stroke-width="8" stroke-linecap="round" stroke-linejoin="round"/>
<path d="M817.406 121.748C822.733 123.08 827.905 119.542 828.958 113.846C830.012 108.15 822.825 92.4298 822.825 92.4298C822.825 92.4298 810.72 103.324 809.667 109.021C808.614 114.717 812.078 120.417 817.406 121.748Z" stroke="#333652" stroke-width="8" stroke-linecap="round" stroke-linejoin="round"/>
<path d="M809.277 165.726C814.605 167.058 819.777 163.52 820.83 157.824C821.883 152.127 814.696 136.408 814.696 136.408C814.696 136.408 802.592 147.302 801.538 152.998C800.485 158.695 803.95 164.394 809.277 165.726Z" stroke="#333652" stroke-width="8" stroke-linecap="round" stroke-linejoin="round"/>
<path d="M777.068 77.7706C782.396 79.1023 787.568 75.5646 788.621 69.8683C789.674 64.172 782.487 48.4521 782.487 48.4521C782.487 48.4521 770.383 59.3466 769.329 65.0429C768.276 70.7392 771.741 76.4389 777.068 77.7706Z" fill="#29A8DF"/>
<path d="M768.94 121.748C774.267 123.08 779.439 119.542 780.492 113.846C781.546 108.15 774.359 92.4298 774.359 92.4298C774.359 92.4298 762.254 103.324 761.201 109.021C760.148 114.717 763.612 120.417 768.94 121.748Z" fill="#29A8DF"/>
<path d="M760.812 165.726C766.139 167.058 771.311 163.52 772.364 157.824C773.417 152.127 766.231 136.408 766.231 136.408C766.231 136.408 754.126 147.302 753.073 152.998C752.019 158.695 755.484 164.394 760.812 165.726Z" fill="#29A8DF"/>
<path d="M780.455 77.7706C785.783 79.1023 790.954 75.5646 792.008 69.8683C793.061 64.172 785.874 48.4521 785.874 48.4521C785.874 48.4521 773.77 59.3466 772.716 65.0429C771.663 70.7392 775.128 76.4389 780.455 77.7706Z" stroke="#333652" stroke-width="8" stroke-linecap="round" stroke-linejoin="round"/>
<path d="M772.327 121.748C777.654 123.08 782.826 119.542 783.879 113.846C784.933 108.15 777.746 92.4298 777.746 92.4298C777.746 92.4298 765.641 103.324 764.588 109.021C763.535 114.717 766.999 120.417 772.327 121.748Z" stroke="#333652" stroke-width="8" stroke-linecap="round" stroke-linejoin="round"/>
<path d="M764.198 165.726C769.526 167.058 774.698 163.52 775.751 157.824C776.804 152.127 769.617 136.408 769.617 136.408C769.617 136.408 757.513 147.302 756.459 152.998C755.406 158.695 758.871 164.394 764.198 165.726Z" stroke="#333652" stroke-width="8" stroke-linecap="round" stroke-linejoin="round"/>
<path d="M811 181V200.479C811 212.511 802.679 222.926 790.988 225.53L616.012 264.498C604.321 267.103 596 277.518 596 289.55V312" stroke="#29A8DF" stroke-width="30" stroke-linecap="round" stroke-linejoin="round"/>
<path d="M697 319V266.287C697 254.394 705.156 244.085 716.647 241.453L723 240" stroke="#29A8DF" stroke-width="30" stroke-linecap="round" stroke-linejoin="round"/>
<path d="M791 395H722L729.788 419.471C730.834 422.754 734.028 425 737.648 425H775.352C778.975 425 782.166 422.754 783.212 419.471L791 395Z" fill="white"/>
<path d="M792.531 387H720.469C719.105 387 718 388.248 718 389.788V392.212C718 393.752 719.105 395 720.469 395H792.531C793.895 395 795 393.752 795 392.212V389.788C795 388.248 793.895 387 792.531 387Z" fill="white"/>
<path d="M791 395H722L729.788 419.471C730.834 422.754 734.028 425 737.648 425H775.352C778.975 425 782.166 422.754 783.212 419.471L791 395Z" stroke="#333652" stroke-width="8" stroke-linecap="round" stroke-linejoin="round"/>
<path d="M792.531 387H720.469C719.105 387 718 388.248 718 389.788V392.212C718 393.752 719.105 395 720.469 395H792.531C793.895 395 795 393.752 795 392.212V389.788C795 388.248 793.895 387 792.531 387Z" stroke="#333652" stroke-width="8" stroke-linecap="round" stroke-linejoin="round"/>
<path d="M742.018 405.411H731.993C730.242 405.411 728.823 403.991 728.823 402.239C728.823 400.487 730.242 399.068 731.993 399.068H742.018C743.769 399.068 745.188 400.487 745.188 402.239C745.188 403.991 743.769 405.411 742.018 405.411Z" fill="#7593AA"/>
<path d="M761.282 405.411H751.257C749.506 405.411 748.087 403.991 748.087 402.239C748.087 400.487 749.506 399.068 751.257 399.068H761.282C763.033 399.068 764.452 400.487 764.452 402.239C764.452 403.991 763.033 405.411 761.282 405.411Z" fill="#7593AA"/>
<path d="M780.547 405.411H770.522C768.771 405.411 767.352 403.991 767.352 402.239C767.352 400.487 768.771 399.068 770.522 399.068H780.547C782.298 399.068 783.717 400.487 783.717 402.239C783.717 403.991 782.298 405.411 780.547 405.411Z" fill="#7593AA"/>
<path d="M751.65 415.733H741.625C739.874 415.733 738.455 414.313 738.455 412.561C738.455 410.809 739.874 409.389 741.625 409.389H751.65C753.401 409.389 754.82 410.809 754.82 412.561C754.82 414.313 753.401 415.733 751.65 415.733Z" fill="#7593AA"/>
<path d="M770.914 415.733H760.889C759.138 415.733 757.719 414.313 757.719 412.561C757.719 410.809 759.138 409.389 760.889 409.389H770.914C772.665 409.389 774.085 410.809 774.085 412.561C774.085 414.313 772.665 415.733 770.914 415.733Z" fill="#7593AA"/>
<path d="M732.725 382.077H779.812C774.823 374.541 766.146 369.549 756.27 369.549C746.394 369.549 737.717 374.541 732.728 382.077H732.725Z" fill="#C5DDEF"/>
<path d="M732.725 382.077H779.812C774.823 374.541 766.146 369.549 756.27 369.549C746.394 369.549 737.717 374.541 732.728 382.077H732.725Z" stroke="#333652" stroke-width="8" stroke-linecap="round" stroke-linejoin="round"/>
<path d="M720.955 387.495H768.042C763.054 379.769 754.377 374.652 744.501 374.652C734.625 374.652 725.947 379.769 720.959 387.495H720.955Z" fill="white"/>
<path d="M720.955 387.495H768.042C763.054 379.769 754.377 374.652 744.501 374.652C734.625 374.652 725.947 379.769 720.959 387.495H720.955Z" stroke="#333652" stroke-width="8" stroke-linecap="round" stroke-linejoin="round"/>
<path d="M744.497 387.495H791.584C786.596 379.769 777.919 374.652 768.042 374.652C758.166 374.652 749.489 379.769 744.501 387.495H744.497Z" fill="#C5DDEF"/>
<path d="M744.497 387.495H791.584C786.596 379.769 777.919 374.652 768.042 374.652C758.166 374.652 749.489 379.769 744.501 387.495H744.497Z" stroke="#333652" stroke-width="8" stroke-linecap="round" stroke-linejoin="round"/>
<path d="M642 451V279.306C642 267.357 650.436 257.013 662.287 254.427L678 251" stroke="#29A8DF" stroke-width="30" stroke-linecap="round" stroke-linejoin="round"/>
<path d="M711 483V442.807C711 438.494 714.357 435 718.5 435C722.643 435 726 438.494 726 442.807V453.733" stroke="#333652" stroke-width="8" stroke-linecap="round" stroke-linejoin="round"/>
<path d="M741 483V442.807C741 438.494 744.581 435 749 435C753.419 435 757 438.494 757 442.807V453.733" stroke="#333652" stroke-width="8" stroke-linecap="round" stroke-linejoin="round"/>
<path d="M868.872 28.876C865.353 28.859 861.99 29.5232 858.908 30.7431C853.729 15.2062 839.078 4 821.805 4C804.532 4 790.192 14.969 784.872 30.2518C783.151 35.1924 778.511 38.4895 773.285 38.6285C773.201 38.6285 773.119 38.6319 773.035 38.6353C761.763 39.0656 752.578 48.2082 752.104 59.4855C751.579 71.9625 761.529 82.2402 773.885 82.2402H868.726C883.666 82.2402 895.74 69.9496 895.391 54.921C895.059 40.5702 883.219 28.9438 868.869 28.8692L868.872 28.876Z" fill="white"/>
<path d="M868.872 28.876C868.377 28.876 867.886 28.8828 867.399 28.9099C862.403 29.1539 857.638 26.6632 854.986 22.4207C850.21 14.7725 842.864 8.89661 834.16 5.99594C830.276 4.70148 826.123 4.00342 821.805 4.00342C801.379 4.00342 784.614 19.6759 782.86 39.6553L782.907 39.662C785.237 40.0382 787.51 38.4523 788.021 36.148C791.205 21.7565 804.031 10.9942 819.373 10.9942C831.2 10.9942 841.533 17.3919 847.105 26.9174C848.903 29.9875 852.256 31.8614 855.799 31.5225C856.493 31.4548 857.198 31.4209 857.909 31.4209C870.007 31.4209 879.811 41.2344 879.811 53.3352C879.811 65.436 762.112 67.232 762.112 57.3372C762.112 47.4424 769.993 39.5672 779.764 39.4316C777.895 38.9064 775.924 38.6217 773.885 38.6217C761.75 38.6217 751.928 48.5437 752.087 60.7224C752.243 72.708 762.231 82.2437 774.21 82.2437H868.726C883.666 82.2437 895.74 69.9531 895.391 54.9245C895.059 40.5736 883.219 28.9472 868.869 28.8726L868.872 28.876Z" fill="#C5DDEF"/>
<path d="M883.683 31.5496C880.164 29.8383 876.211 28.8793 872.039 28.8793" stroke="#333652" stroke-width="8" stroke-linecap="round" stroke-linejoin="round"/>
<path d="M825.114 4.00339C808.027 4.00339 793.501 14.9724 788.181 30.2552C786.46 35.1958 781.82 38.4929 776.594 38.6319C776.51 38.6319 776.428 38.6353 776.344 38.6386C765.072 39.069 755.887 48.2115 755.413 59.4889C754.888 71.9659 764.839 82.2436 777.194 82.2436H871.7C886.348 82.2436 898.514 70.5698 898.707 55.9173C898.832 46.4495 894.026 38.0965 886.697 33.2609" stroke="#333652" stroke-width="8" stroke-linecap="round" stroke-linejoin="round"/>
<path d="M862.217 30.7465C858.468 19.4929 849.747 10.513 838.658 6.41611" stroke="#333652" stroke-width="8" stroke-linecap="round" stroke-linejoin="round"/>
<path d="M1006.78 119.146C1009.58 118.997 1012.25 119.464 1014.68 120.427C1018.31 109.542 1028.57 101.694 1040.67 101.694C1052.77 101.694 1062.55 109.177 1066.39 119.661C1067.73 123.314 1071.14 125.771 1075.02 125.967C1075.08 125.967 1075.14 125.974 1075.2 125.977C1082.98 126.459 1089.23 132.877 1089.5 140.681C1089.81 149.369 1082.86 156.509 1074.24 156.509H1007.8C997.192 156.509 988.648 147.661 989.135 136.94C989.569 127.411 997.26 119.654 1006.78 119.149V119.146Z" fill="white"/>
<path d="M1006.78 119.146C1007.6 119.102 1008.42 119.112 1009.22 119.173C1012.44 119.414 1015.52 117.77 1017.18 114.995C1020.52 109.444 1025.77 105.171 1032.02 103.091C1034.74 102.186 1037.65 101.694 1040.67 101.694C1054.98 101.694 1066.72 112.674 1067.95 126.669C1066.86 126.845 1065.81 127.163 1064.82 127.604C1064.05 115.869 1054.3 106.591 1042.38 106.591C1034.31 106.591 1027.23 110.844 1023.26 117.231C1021.75 119.671 1019.02 121.064 1016.16 120.922C1015.9 120.908 1015.64 120.901 1015.38 120.901C1006.91 120.901 1000.04 127.773 1000.04 136.255C1000.04 144.737 1082.49 145.991 1082.49 139.061C1082.49 132.131 1076.97 126.611 1070.12 126.516C1071.94 126.004 1073.9 125.818 1075.93 126.042C1083.26 126.845 1089.03 132.897 1089.48 140.26C1090.03 149.139 1083 156.509 1074.24 156.509H1007.8C997.196 156.509 988.651 147.661 989.139 136.94C989.572 127.411 997.264 119.654 1006.78 119.149L1006.78 119.146Z" fill="#C5DDEF"/>
<path d="M1003.04 120.989C1005.5 119.79 1008.27 119.119 1011.2 119.119" stroke="#333652" stroke-width="8" stroke-linecap="round" stroke-linejoin="round"/>
<path d="M1044.07 101.694C1056.29 101.694 1066.64 109.702 1070.16 120.755C1071.17 123.904 1074.09 126.001 1077.39 125.95C1077.79 125.943 1078.19 125.95 1078.6 125.977C1086.38 126.459 1092.62 132.877 1092.9 140.681C1093.2 149.369 1086.25 156.509 1077.64 156.509H1011.49C1001.07 156.509 992.377 147.983 992.515 137.567C992.583 132.311 994.822 127.577 998.375 124.222" stroke="#333652" stroke-width="8" stroke-linecap="round" stroke-linejoin="round"/>
<path d="M1018.08 120.427C1020.7 112.541 1026.81 106.252 1034.58 103.382" stroke="#333652" stroke-width="8" stroke-linecap="round" stroke-linejoin="round"/>
<path d="M1028.25 40.3669C1017.07 45.0432 1016.16 58.0488 1016.16 58.0488C1016.16 58.0488 1008.28 48.7232 995.093 54.2399" stroke="#333652" stroke-width="8" stroke-linecap="round" stroke-linejoin="round"/>
<path d="M1210.14 105.358C1198.74 101.247 1189.29 110.22 1189.29 110.22C1189.29 110.22 1189.77 98.0177 1176.33 93.1686" stroke="#333652" stroke-width="8" stroke-linecap="round" stroke-linejoin="round"/>
<path d="M421.518 119.146C424.319 118.997 426.991 119.464 429.42 120.427C433.047 109.542 443.312 101.694 455.41 101.694C467.508 101.694 477.286 109.177 481.13 119.661C482.468 123.314 485.878 125.771 489.759 125.967C489.817 125.967 489.878 125.974 489.936 125.977C497.722 126.459 503.964 132.877 504.238 140.681C504.543 149.369 497.593 156.509 488.977 156.509H422.537C411.93 156.509 403.385 147.661 403.873 136.94C404.306 127.411 411.998 119.654 421.518 119.149V119.146Z" fill="white"/>
<path d="M421.518 119.146C422.341 119.102 423.154 119.112 423.953 119.173C427.177 119.414 430.253 117.77 431.919 114.995C435.255 109.444 440.505 105.171 446.753 103.091C449.473 102.186 452.382 101.694 455.407 101.694C469.716 101.694 481.458 112.674 482.688 126.669C481.59 126.845 480.54 127.163 479.555 127.604C478.786 115.869 469.032 106.591 457.11 106.591C449.039 106.591 441.964 110.844 437.995 117.231C436.481 119.671 433.758 121.064 430.893 120.922C430.635 120.908 430.378 120.901 430.117 120.901C421.643 120.901 414.771 127.773 414.771 136.255C414.771 144.737 497.224 145.991 497.224 139.061C497.224 132.131 491.703 126.611 484.859 126.516C486.677 126.004 488.632 125.818 490.66 126.042C497.989 126.845 503.764 132.897 504.218 140.26C504.767 149.139 497.732 156.509 488.977 156.509H422.537C411.93 156.509 403.385 147.661 403.873 136.94C404.306 127.411 411.998 119.654 421.518 119.149V119.146Z" fill="#C5DDEF"/>
<path d="M417.776 120.989C420.241 119.79 423.008 119.119 425.934 119.119" stroke="#333652" stroke-width="8" stroke-linecap="round" stroke-linejoin="round"/>
<path d="M458.804 101.694C471.023 101.694 481.374 109.702 484.899 120.755C485.905 123.904 488.828 126.001 492.13 125.95C492.526 125.943 492.93 125.95 493.333 125.977C501.119 126.459 507.361 132.877 507.635 140.681C507.94 149.369 500.99 156.509 492.374 156.509H426.226C415.811 156.509 407.114 147.983 407.253 137.567C407.32 132.311 409.559 127.577 413.112 124.222" stroke="#333652" stroke-width="8" stroke-linecap="round" stroke-linejoin="round"/>
<path d="M432.813 120.427C435.441 112.541 441.551 106.252 449.317 103.382" stroke="#333652" stroke-width="8" stroke-linecap="round" stroke-linejoin="round"/>
<path d="M300 133.152C311.463 129.054 320.967 138 320.967 138C320.967 138 320.477 125.834 334 121" stroke="#333652" stroke-width="8" stroke-linecap="round" stroke-linejoin="round"/>
<path d="M741 469H711" stroke="#333652" stroke-width="8" stroke-linecap="round" stroke-linejoin="round"/>
<path d="M1187 441H1272" stroke="#333652" stroke-width="8" stroke-linecap="round" stroke-linejoin="round"/>
<path d="M882 441H1170" stroke="#333652" stroke-width="8" stroke-linecap="round" stroke-linejoin="round"/>
<path d="M418 441H166" stroke="#333652" stroke-width="8" stroke-linecap="round" stroke-linejoin="round"/>
<path d="M544 441H433" stroke="#333652" stroke-width="8" stroke-linecap="round" stroke-linejoin="round"/>
<defs>
<radialGradient id="paint0_radial_6_11" cx="0" cy="0" r="1" gradientUnits="userSpaceOnUse" gradientTransform="translate(719.996 441.111) scale(709.398 709.774)">
<stop offset="0.44" stop-color="#29A8DF"/>
<stop offset="1" stop-color="#B8F0FE"/>
</radialGradient>
<linearGradient id="paint1_linear_6_11" x1="97.3347" y1="364.924" x2="609.638" y2="364.924" gradientUnits="userSpaceOnUse">
<stop stop-color="#C5DDEF"/>
<stop offset="1" stop-color="white"/>
</linearGradient>
<linearGradient id="paint2_linear_6_11" x1="1410.02" y1="365.151" x2="947.326" y2="365.151" gradientUnits="userSpaceOnUse">
<stop stop-color="#C5DDEF"/>
<stop offset="1" stop-color="white"/>
</linearGradient>
<linearGradient id="paint3_linear_6_11" x1="1274.29" y1="392.84" x2="813.046" y2="392.84" gradientUnits="userSpaceOnUse">
<stop stop-color="#FAD02C"/>
<stop offset="1" stop-color="white"/>
</linearGradient>
<linearGradient id="paint4_linear_6_11" x1="220.654" y1="388.789" x2="747.459" y2="463.783" gradientUnits="userSpaceOnUse">
<stop stop-color="#FAD02C"/>
<stop offset="1" stop-color="white"/>
</linearGradient>
<linearGradient id="paint5_linear_6_11" x1="516.299" y1="455.878" x2="516.299" y2="365.3" gradientUnits="userSpaceOnUse">
<stop stop-color="#6AA053"/>
<stop offset="1" stop-color="#B8CC71"/>
</linearGradient>
<linearGradient id="paint6_linear_6_11" x1="922.713" y1="455.878" x2="922.713" y2="365.3" gradientUnits="userSpaceOnUse">
<stop stop-color="#6AA053"/>
<stop offset="1" stop-color="#B8CC71"/>
</linearGradient>
<linearGradient id="paint7_linear_6_11" x1="651.169" y1="368.814" x2="651.169" y2="179.538" gradientUnits="userSpaceOnUse">
<stop stop-color="#C5DDEF"/>
<stop offset="1" stop-color="white"/>
</linearGradient>
<linearGradient id="paint8_linear_6_11" x1="824.325" y1="183.025" x2="824.325" y2="269.784" gradientUnits="userSpaceOnUse">
<stop stop-color="#C5DDEF"/>
<stop offset="1" stop-color="white"/>
</linearGradient>
<linearGradient id="paint9_linear_6_11" x1="789.285" y1="333.779" x2="849.408" y2="333.779" gradientUnits="userSpaceOnUse">
<stop stop-color="white"/>
<stop offset="1" stop-color="#C5DDEF"/>
</linearGradient>
<linearGradient id="paint10_linear_6_11" x1="990.25" y1="356.621" x2="854.234" y2="356.621" gradientUnits="userSpaceOnUse">
<stop stop-color="white"/>
<stop offset="1" stop-color="#C5DDEF"/>
</linearGradient>
<linearGradient id="paint11_linear_6_11" x1="1132.48" y1="426.411" x2="1043.33" y2="259.729" gradientUnits="userSpaceOnUse">
<stop stop-color="white"/>
<stop offset="1" stop-color="#29A8DF"/>
</linearGradient>
<linearGradient id="paint12_linear_6_11" x1="1119.72" y1="336.788" x2="1171.15" y2="336.788" gradientUnits="userSpaceOnUse">
<stop stop-color="white"/>
<stop offset="1" stop-color="#C5DDEF"/>
</linearGradient>
<linearGradient id="paint13_linear_6_11" x1="1092.88" y1="337.754" x2="1154.19" y2="337.754" gradientUnits="userSpaceOnUse">
<stop stop-color="#90ADC6"/>
<stop offset="1" stop-color="#7593AA"/>
</linearGradient>
<linearGradient id="paint14_linear_6_11" x1="1156.2" y1="-55.6771" x2="1210.03" y2="-55.6771" gradientUnits="userSpaceOnUse">
<stop stop-color="#90ADC6"/>
<stop offset="1" stop-color="#7593AA"/>
</linearGradient>
<linearGradient id="paint15_linear_6_11" x1="568.788" y1="355.615" x2="602.606" y2="355.615" gradientUnits="userSpaceOnUse">
<stop stop-color="white"/>
<stop offset="1" stop-color="#BED5E5"/>
</linearGradient>
<linearGradient id="paint16_linear_6_11" x1="104.981" y1="327.584" x2="105.319" y2="327.584" gradientUnits="userSpaceOnUse">
<stop stop-color="white"/>
<stop offset="1" stop-color="#BED5E5"/>
</linearGradient>
<linearGradient id="paint17_linear_6_11" x1="568.788" y1="404.649" x2="591.791" y2="404.649" gradientUnits="userSpaceOnUse">
<stop stop-color="white"/>
<stop offset="1" stop-color="#BED5E5"/>
</linearGradient>
<linearGradient id="paint18_linear_6_11" x1="562.651" y1="380.501" x2="591.642" y2="380.501" gradientUnits="userSpaceOnUse">
<stop stop-color="white"/>
<stop offset="1" stop-color="#BED5E5"/>
</linearGradient>
<linearGradient id="paint19_linear_6_11" x1="281.235" y1="426.411" x2="370.383" y2="259.729" gradientUnits="userSpaceOnUse">
<stop stop-color="white"/>
<stop offset="1" stop-color="#29A8DF"/>
</linearGradient>
<linearGradient id="paint20_linear_6_11" x1="237.306" y1="361.35" x2="248.623" y2="360.535" gradientUnits="userSpaceOnUse">
<stop stop-color="#B8CC71"/>
<stop offset="1" stop-color="#6AA053"/>
</linearGradient>
<linearGradient id="paint21_linear_6_11" x1="373.235" y1="368.509" x2="373.235" y2="389.241" gradientUnits="userSpaceOnUse">
<stop stop-color="#80A931"/>
<stop offset="1" stop-color="#B8CC71"/>
</linearGradient>
<linearGradient id="paint22_linear_6_11" x1="404.469" y1="369.82" x2="403.313" y2="412.287" gradientUnits="userSpaceOnUse">
<stop stop-color="#80A931"/>
<stop offset="0.69" stop-color="#B8CC71"/>
<stop offset="0.9" stop-color="#ECE5C4"/>
</linearGradient>
<linearGradient id="paint23_linear_6_11" x1="381.228" y1="363.138" x2="381.228" y2="386.279" gradientUnits="userSpaceOnUse">
<stop stop-color="#80A931"/>
<stop offset="1" stop-color="#B8CC71"/>
</linearGradient>
<linearGradient id="paint24_linear_6_11" x1="391.87" y1="365.164" x2="391.87" y2="387.397" gradientUnits="userSpaceOnUse">
<stop stop-color="#80A931"/>
<stop offset="1" stop-color="#B8CC71"/>
</linearGradient>
<linearGradient id="paint25_linear_6_11" x1="386.027" y1="360.627" x2="384.648" y2="411.402" gradientUnits="userSpaceOnUse">
<stop stop-color="#80A931"/>
<stop offset="0.69" stop-color="#B8CC71"/>
<stop offset="0.9" stop-color="#ECE5C4"/>
</linearGradient>
<linearGradient id="paint26_linear_6_11" x1="401.634" y1="361.999" x2="400.281" y2="411.768" gradientUnits="userSpaceOnUse">
<stop stop-color="#80A931"/>
<stop offset="0.69" stop-color="#B8CC71"/>
<stop offset="0.9" stop-color="#ECE5C4"/>
</linearGradient>
<linearGradient id="paint27_linear_6_11" x1="366.783" y1="372.467" x2="365.715" y2="411.795" gradientUnits="userSpaceOnUse">
<stop stop-color="#80A931"/>
<stop offset="0.69" stop-color="#B8CC71"/>
<stop offset="0.9" stop-color="#ECE5C4"/>
</linearGradient>
<linearGradient id="paint28_linear_6_11" x1="543" y1="486.498" x2="876" y2="486.498" gradientUnits="userSpaceOnUse">
<stop stop-color="white"/>
<stop offset="1" stop-color="#29A8DF"/>
</linearGradient>
</defs>
</svg>
