<svg width="70" height="100" viewBox="0 0 70 100" fill="none" xmlns="http://www.w3.org/2000/svg">
<path d="M34.837 0C34.837 0 0 32.5615 0 63.1738C0 83.5127 15.598 100 34.837 100C54.076 100 69.6765 83.5127 69.6765 63.1738C69.6765 32.5615 34.837 0 34.837 0ZM34.837 84.3105C20.5238 84.3105 8.92066 72.0438 8.92066 56.9156C8.92066 34.1416 34.837 9.91736 34.837 9.91736C34.837 9.91736 60.7533 34.1416 60.7533 56.9156C60.7533 72.0464 49.1502 84.3105 34.837 84.3105Z" fill="url(#paint0_radial_6_398)"/>
<path d="M34.837 25.7783C34.837 25.7783 65.3905 41.6913 58.2013 67.571C58.0809 67.9998 58.1812 68.4624 58.1486 68.9043C59.8173 65.284 60.7558 61.2141 60.7558 56.9156C60.7558 34.1415 34.8395 9.9173 34.8395 9.9173V25.7783H34.837Z" fill="url(#paint1_linear_6_398)"/>
<path d="M34.8371 25.7783C34.8371 25.7783 4.28348 41.6913 11.4727 67.571C11.5932 67.9998 11.4928 68.4624 11.5254 68.9043C9.8567 65.284 8.91821 61.2141 8.91821 56.9156C8.91821 34.1415 34.8345 9.9173 34.8345 9.9173V25.7783H34.8371Z" fill="url(#paint2_linear_6_398)"/>
<path d="M34.8369 9.91742C37.7628 12.6359 40.5105 15.5674 43.1303 18.6211C45.745 21.6774 48.2267 24.8714 50.5152 28.2188C52.7937 31.574 54.8764 35.0876 56.638 38.7937C58.3945 42.4971 59.8148 46.4084 60.6253 50.4991C61.0268 52.5418 61.2652 54.6313 61.2903 56.7286C61.3154 58.8285 61.1121 60.9336 60.6905 62.9867C59.8499 67.0981 58.1034 71.0017 55.6367 74.3101C53.1776 77.6236 49.9883 80.3291 46.4024 82.1743C42.8166 84.0247 38.8268 84.9863 34.8369 84.9863C30.8471 84.9863 26.8573 84.0247 23.2715 82.1743C19.6831 80.3317 16.4988 77.6236 14.0346 74.3101C11.568 71.0017 9.82397 67.0981 8.98084 62.9867C8.55927 60.931 8.35602 58.8259 8.3786 56.7286C8.4037 54.6261 8.64459 52.5418 9.04357 50.4964C9.85158 46.4058 11.2744 42.4945 13.0284 38.7911C14.7899 35.0876 16.8752 31.5714 19.1511 28.2162C21.4396 24.8688 23.9214 21.6748 26.5386 18.6185C29.1558 15.5648 31.9035 12.6307 34.8319 9.91483C33.4091 11.3182 32.0441 12.7892 30.7091 14.2836C29.3691 15.7753 28.0643 17.3009 26.7945 18.8576C24.2576 21.9737 21.8637 25.2171 19.6681 28.6008C17.4674 31.9794 15.4574 35.4983 13.7862 39.1835C12.1175 42.8661 10.7599 46.7177 10.0272 50.707C9.66086 52.6977 9.4551 54.7196 9.4551 56.7364C9.45259 58.7557 9.65836 60.7673 10.0774 62.732C10.913 66.6615 12.6068 70.3779 14.9857 73.5148C17.357 76.6595 20.3933 79.2401 23.816 80.984C27.2362 82.7382 31.0328 83.6401 34.8344 83.6323C38.6336 83.6427 42.4327 82.7382 45.8529 80.984C49.2781 79.2401 52.3119 76.6595 54.6832 73.5174C57.062 70.3779 58.7558 66.6615 59.5914 62.732C60.0105 60.7673 60.2163 58.7531 60.2138 56.7364C60.2138 54.7196 60.008 52.6977 59.6416 50.707C58.9089 46.7203 57.5489 42.8661 55.8827 39.1835C54.2089 35.4983 52.199 31.9794 49.9983 28.6008C47.8026 25.2171 45.4087 21.9737 42.8718 18.8602C41.6021 17.3035 40.2972 15.7779 38.9573 14.2862C37.6198 12.7918 36.2572 11.3234 34.8319 9.91742H34.8369Z" fill="url(#paint3_linear_6_398)"/>
<path d="M35.266 12.2355C35.266 12.2355 9.63821 35.7061 9.63821 57.7706C9.63821 72.431 21.1134 84.3131 35.266 84.3131C49.4186 84.3131 60.8937 72.4284 60.8937 57.7706C60.8937 35.7061 35.266 12.2355 35.266 12.2355ZM35.266 73.0053C24.7368 73.0053 16.2001 64.1639 16.2001 53.259C16.2001 36.8444 35.266 19.3851 35.266 19.3851C35.266 19.3851 54.3318 36.8444 54.3318 53.259C54.3318 64.1639 45.7951 73.0053 35.266 73.0053Z" fill="url(#paint4_radial_6_398)"/>
<path d="M35.2687 30.815C35.2687 30.815 57.7448 42.2839 52.4551 60.9387C52.3673 61.248 52.4401 61.5832 52.415 61.9003C53.6445 59.291 54.3321 56.3594 54.3321 53.259C54.3321 36.8444 35.2662 19.3851 35.2662 19.3851V30.8176L35.2687 30.815Z" fill="url(#paint5_linear_6_398)"/>
<path d="M35.2686 30.815C35.2686 30.815 12.7926 42.2839 18.0823 60.9387C18.1701 61.248 18.0973 61.5832 18.1224 61.9003C16.8928 59.291 16.2028 56.3594 16.2028 53.259C16.2028 36.8444 35.2686 19.3851 35.2686 19.3851V30.8176V30.815Z" fill="url(#paint6_linear_6_398)"/>
<path d="M35.266 19.385C37.419 21.3446 39.439 23.4575 41.3662 25.6588C43.2909 27.8626 45.1151 30.1626 46.7989 32.577C48.4751 34.994 50.0083 37.5279 51.3031 40.1995C52.5955 42.8686 53.6418 45.6884 54.2365 48.6355C54.5326 50.1091 54.7083 51.6138 54.7259 53.1264C54.7434 54.639 54.5954 56.1567 54.2842 57.6381C53.6644 60.6008 52.3822 63.4154 50.5679 65.8012C48.7587 68.1896 46.4125 70.1413 43.7752 71.4694C41.1379 72.8026 38.202 73.4965 35.2685 73.4965C32.3351 73.4965 29.3992 72.8026 26.7619 71.4694C24.1221 70.1413 21.7784 68.1896 19.9667 65.8012C18.1524 63.4154 16.8702 60.6034 16.2504 57.6381C15.9392 56.1567 15.7911 54.639 15.8087 53.1264C15.8263 51.6113 16.0044 50.1091 16.298 48.6355C16.8927 45.6858 17.9391 42.866 19.2314 40.1969C20.5288 37.5279 22.0594 34.994 23.7357 32.5744C25.4194 30.16 27.2437 27.86 29.1684 25.6562C31.0955 23.4549 33.1155 21.3394 35.2685 19.3824C34.2222 20.3934 33.2184 21.4538 32.2348 22.5297C31.2486 23.6056 30.29 24.705 29.3566 25.8277C27.4896 28.0731 25.7281 30.4095 24.1146 32.8499C22.4961 35.285 21.0181 37.8216 19.786 40.4776C18.5589 43.1311 17.5602 45.9093 17.0207 48.7837C16.7522 50.2183 16.5991 51.6762 16.5991 53.129C16.5991 54.5844 16.7472 56.0346 17.0558 57.451C17.6706 60.2837 18.9178 62.9606 20.6668 65.2242C22.4108 67.4905 24.6441 69.3513 27.1634 70.6065C29.6803 71.8696 32.4732 72.5219 35.2685 72.5167C38.0639 72.5245 40.8568 71.8722 43.3737 70.6091C45.893 69.3513 48.1263 67.4905 49.8703 65.2268C51.6193 62.9632 52.8665 60.2863 53.4812 57.4535C53.7899 56.0372 53.9404 54.5844 53.9404 53.1316C53.9404 51.6762 53.7899 50.2208 53.5189 48.7863C52.9794 45.9119 51.9807 43.1363 50.7536 40.4802C49.5215 37.8242 48.0435 35.2876 46.425 32.8525C44.809 30.4147 43.0475 28.0757 41.183 25.8303C40.2496 24.7076 39.2885 23.6082 38.3048 22.5323C37.3212 21.4564 36.3174 20.396 35.2711 19.385H35.266Z" fill="url(#paint7_linear_6_398)"/>
<path d="M35.7705 21.7891C35.7705 21.7891 16.9806 38.5207 16.9806 54.2492C16.9806 64.6993 25.3944 73.1717 35.7705 73.1717C46.1465 73.1717 54.5603 64.6993 54.5603 54.2492C54.5603 38.5207 35.7705 21.7891 35.7705 21.7891ZM35.7705 65.1099C28.0493 65.1099 21.791 58.8076 21.791 51.0343C21.791 39.3316 35.7705 26.8855 35.7705 26.8855C35.7705 26.8855 49.7499 39.3316 49.7499 51.0343C49.7499 58.8076 43.4917 65.1099 35.7705 65.1099Z" fill="url(#paint8_radial_6_398)"/>
<path d="M35.7704 35.033C35.7704 35.033 52.2491 43.2091 48.3722 56.5076C48.307 56.7285 48.3622 56.965 48.3421 57.1937C49.243 55.3329 49.7473 53.2434 49.7473 51.0344C49.7473 39.3316 35.7679 26.8855 35.7679 26.8855V35.0356L35.7704 35.033Z" fill="url(#paint9_linear_6_398)"/>
<path d="M35.7706 35.033C35.7706 35.033 19.2918 43.2091 23.1687 56.5076C23.234 56.7285 23.1788 56.965 23.1988 57.1937C22.298 55.3329 21.7911 53.2434 21.7911 51.0344C21.7911 39.3316 35.7706 26.8855 35.7706 26.8855V35.0356V35.033Z" fill="url(#paint10_linear_6_398)"/>
<path d="M35.7705 26.883C37.3489 28.2786 38.8319 29.786 40.2421 31.3557C41.6524 32.9254 42.9899 34.5679 44.2244 36.2884C45.454 38.0114 46.5782 39.8177 47.5267 41.7226C48.4752 43.625 49.2406 45.6366 49.6772 47.7365C49.893 48.7864 50.0235 49.8598 50.036 50.9383C50.0486 52.0168 49.9407 53.098 49.7123 54.1531C49.2582 56.266 48.3172 58.2724 46.9872 59.972C45.6598 61.6743 43.9409 63.0647 42.0062 64.0133C40.0715 64.9645 37.921 65.4583 35.768 65.4583C33.6175 65.4583 31.4645 64.9645 29.5298 64.0133C27.5951 63.0673 25.8762 61.6743 24.5488 59.972C23.2189 58.2724 22.2779 56.266 21.8237 54.1531C21.5953 53.098 21.4874 52.0142 21.5 50.9383C21.5125 49.8598 21.643 48.7864 21.8588 47.7365C22.2954 45.634 23.0608 43.625 24.0093 41.7226C24.9603 39.8203 26.0845 38.014 27.3116 36.2884C28.5462 34.5679 29.8836 32.928 31.2964 31.3583C32.7091 29.7886 34.1896 28.2812 35.768 26.8856C35.0002 27.6081 34.2649 28.3618 33.5447 29.131C32.8221 29.8977 32.1169 30.68 31.4344 31.4804C30.0668 33.0813 28.7745 34.7472 27.5901 36.4859C26.4032 38.2219 25.3192 40.0308 24.4158 41.9228C23.515 43.8148 22.7822 45.7951 22.3883 47.843C22.19 48.867 22.0796 49.9039 22.0796 50.9409C22.0796 51.9779 22.19 53.0122 22.4159 54.0206C22.8651 56.0399 23.781 57.9475 25.0632 59.5614C26.3405 61.1779 27.9791 62.5034 29.8259 63.4C31.6703 64.3018 33.7179 64.7644 35.768 64.7618C37.8181 64.767 39.8657 64.3018 41.7101 63.4C43.557 62.5034 45.193 61.1779 46.4728 59.564C47.7551 57.9501 48.6685 56.0425 49.1201 54.0232C49.346 53.0148 49.4564 51.9779 49.4564 50.9435C49.4564 49.9065 49.346 48.8696 49.1477 47.8456C48.7538 45.7977 48.0185 43.8174 47.1202 41.9254C46.2168 40.0308 45.1328 38.2245 43.9459 36.4885C42.7615 34.7498 41.4692 33.0839 40.1016 31.483C39.4166 30.6826 38.7114 29.9003 37.9913 29.1336C37.2711 28.367 36.5359 27.6107 35.7655 26.8882L35.7705 26.883Z" fill="url(#paint11_linear_6_398)"/>
<defs>
<radialGradient id="paint0_radial_6_398" cx="0" cy="0" r="1" gradientUnits="userSpaceOnUse" gradientTransform="translate(25.7439 40.5926) scale(59.0341 62.5969)">
<stop stop-color="#B8F0FE"/>
<stop offset="0.13" stop-color="#94DAF5"/>
<stop offset="0.36" stop-color="#5AB6E8"/>
<stop offset="0.56" stop-color="#309CDE"/>
<stop offset="0.71" stop-color="#168CD8"/>
<stop offset="0.81" stop-color="#0D87D6"/>
<stop offset="1" stop-color="#2494FF"/>
</radialGradient>
<linearGradient id="paint1_linear_6_398" x1="34.837" y1="39.4095" x2="60.7558" y2="39.4095" gradientUnits="userSpaceOnUse">
<stop stop-color="#3FBDFF"/>
<stop offset="0.15" stop-color="#48C1FE"/>
<stop offset="0.4" stop-color="#62CBFE"/>
<stop offset="0.71" stop-color="#8CDDFE"/>
<stop offset="1" stop-color="#B8F0FE"/>
</linearGradient>
<linearGradient id="paint2_linear_6_398" x1="34.8396" y1="39.4095" x2="8.92072" y2="39.4095" gradientUnits="userSpaceOnUse">
<stop stop-color="#2994D9"/>
<stop offset="1" stop-color="#0F63BD"/>
</linearGradient>
<linearGradient id="paint3_linear_6_398" x1="8.38111" y1="47.4532" x2="61.2928" y2="47.4532" gradientUnits="userSpaceOnUse">
<stop stop-color="#0F63BD"/>
<stop offset="1" stop-color="#52DBFF"/>
</linearGradient>
<radialGradient id="paint4_radial_6_398" cx="0" cy="0" r="1" gradientUnits="userSpaceOnUse" gradientTransform="translate(28.6639 41.434) scale(43.4942 45.0465)">
<stop stop-color="#B8F0FE"/>
<stop offset="0.13" stop-color="#94DAF5"/>
<stop offset="0.36" stop-color="#5AB6E8"/>
<stop offset="0.56" stop-color="#309CDE"/>
<stop offset="0.71" stop-color="#168CD8"/>
<stop offset="0.81" stop-color="#0D87D6"/>
<stop offset="1" stop-color="#2494FF"/>
</radialGradient>
<linearGradient id="paint5_linear_6_398" x1="35.2662" y1="40.6414" x2="54.3321" y2="40.6414" gradientUnits="userSpaceOnUse">
<stop stop-color="#3FBDFF"/>
<stop offset="0.15" stop-color="#48C1FE"/>
<stop offset="0.4" stop-color="#62CBFE"/>
<stop offset="0.71" stop-color="#8CDDFE"/>
<stop offset="1" stop-color="#B8F0FE"/>
</linearGradient>
<linearGradient id="paint6_linear_6_398" x1="35.2686" y1="40.6414" x2="16.2028" y2="40.6414" gradientUnits="userSpaceOnUse">
<stop stop-color="#2994D9"/>
<stop offset="1" stop-color="#0F63BD"/>
</linearGradient>
<linearGradient id="paint7_linear_6_398" x1="15.8037" y1="46.4395" x2="54.7284" y2="46.4395" gradientUnits="userSpaceOnUse">
<stop stop-color="#0F63BD"/>
<stop offset="1" stop-color="#52DBFF"/>
</linearGradient>
<radialGradient id="paint8_radial_6_398" cx="0" cy="0" r="1" gradientUnits="userSpaceOnUse" gradientTransform="translate(31.288 42.8504) scale(31.9898 32.2361)">
<stop stop-color="#B8F0FE"/>
<stop offset="0.13" stop-color="#94DAF5"/>
<stop offset="0.36" stop-color="#5AB6E8"/>
<stop offset="0.56" stop-color="#309CDE"/>
<stop offset="0.71" stop-color="#168CD8"/>
<stop offset="0.81" stop-color="#0D87D6"/>
<stop offset="1" stop-color="#2494FF"/>
</radialGradient>
<linearGradient id="paint9_linear_6_398" x1="35.7704" y1="42.037" x2="49.7473" y2="42.037" gradientUnits="userSpaceOnUse">
<stop stop-color="#3FBDFF"/>
<stop offset="0.15" stop-color="#48C1FE"/>
<stop offset="0.4" stop-color="#62CBFE"/>
<stop offset="0.71" stop-color="#8CDDFE"/>
<stop offset="1" stop-color="#B8F0FE"/>
</linearGradient>
<linearGradient id="paint10_linear_6_398" x1="35.7706" y1="42.037" x2="21.7911" y2="42.037" gradientUnits="userSpaceOnUse">
<stop stop-color="#2994D9"/>
<stop offset="1" stop-color="#0F63BD"/>
</linearGradient>
<linearGradient id="paint11_linear_6_398" x1="21.5" y1="46.1719" x2="50.0385" y2="46.1719" gradientUnits="userSpaceOnUse">
<stop stop-color="#0F63BD"/>
<stop offset="1" stop-color="#52DBFF"/>
</linearGradient>
</defs>
</svg>
